<?xml version="1.0" encoding="UTF-8"?>
<svg xmlns="http://www.w3.org/2000/svg" version="1.1" xmlns:xlink="http://www.w3.org/1999/xlink" viewBox="0 0 1064 321.1">
  <defs>
    <style>
      .cls-1 {
        fill: url(#linear-gradient-2);
      }

      .cls-2 {
        fill: #5355ce;
      }

      .cls-3 {
        fill: url(#linear-gradient-4);
      }

      .cls-4 {
        fill: url(#linear-gradient-3);
      }

      .cls-5 {
        fill: url(#linear-gradient);
      }
    </style>
    <linearGradient id="linear-gradient" x1="25.9" y1="288.6" x2="302.6" y2="288.6" gradientTransform="translate(0 324) scale(1 -1)" gradientUnits="userSpaceOnUse">
      <stop offset="0" stop-color="#363ca3"/>
      <stop offset="0" stop-color="#3e43b0"/>
      <stop offset=".2" stop-color="#4a4dc0"/>
      <stop offset=".3" stop-color="#5053ca"/>
      <stop offset=".4" stop-color="#5355ce"/>
      <stop offset=".6" stop-color="#676ad8"/>
      <stop offset=".9" stop-color="#9ca0f2"/>
      <stop offset="1" stop-color="#b6baff"/>
    </linearGradient>
    <linearGradient id="linear-gradient-2" x1="43.1" y1="164.2" x2="258.4" y2="164.2" gradientTransform="translate(0 324) scale(1 -1)" gradientUnits="userSpaceOnUse">
      <stop offset="0" stop-color="#363ca3"/>
      <stop offset="0" stop-color="#373da4"/>
      <stop offset="0" stop-color="#4347b7"/>
      <stop offset=".2" stop-color="#4c4fc4"/>
      <stop offset=".2" stop-color="#5153cb"/>
      <stop offset=".5" stop-color="#5355ce"/>
      <stop offset=".8" stop-color="#8689e7"/>
      <stop offset="1" stop-color="#b6baff"/>
    </linearGradient>
    <linearGradient id="linear-gradient-3" x1="37.9" y1="324" x2="37.9" y2="6.9" gradientTransform="translate(0 324) scale(1 -1)" gradientUnits="userSpaceOnUse">
      <stop offset="0" stop-color="#b6baff"/>
      <stop offset="0" stop-color="#b0b4fc"/>
      <stop offset=".2" stop-color="#888be8"/>
      <stop offset=".3" stop-color="#6a6dd9"/>
      <stop offset=".4" stop-color="#595bd1"/>
      <stop offset=".5" stop-color="#5355ce"/>
      <stop offset=".6" stop-color="#4549b9"/>
      <stop offset=".8" stop-color="#363ca3"/>
    </linearGradient>
    <linearGradient id="linear-gradient-4" x1="30.4" y1="7.1" x2="221" y2="87.8" gradientTransform="translate(0 324) scale(1 -1)" gradientUnits="userSpaceOnUse">
      <stop offset="0" stop-color="#b6baff"/>
      <stop offset=".2" stop-color="#8c90ea"/>
      <stop offset=".3" stop-color="#6d6fdb"/>
      <stop offset=".4" stop-color="#595cd1"/>
      <stop offset=".5" stop-color="#5355ce"/>
      <stop offset=".7" stop-color="#4649ba"/>
      <stop offset=".9" stop-color="#363ca3"/>
    </linearGradient>
  </defs>
  <!-- Generator: Adobe Illustrator 28.6.0, SVG Export Plug-In . SVG Version: 1.2.0 Build 709)  -->
  <g>
    <g id="Layer_2">
      <g id="Layer_1-2">
        <g>
          <path class="cls-5" d="M226,0v70.8H3L72.1,1.8c1.1-1.1,2.6-1.8,4.2-1.8h149.7,0Z"/>
          <rect class="cls-1" x="70" y="124.4" width="101.6" height="70.8"/>
          <path class="cls-4" d="M75.8,0c-4.9.5-4.9,7.9-4.9,7.9v309.2L1.8,248c-1.1-1.1-1.8-2.6-1.8-4.2V76.3c0-1.6.6-3.1,1.8-4.2L70.8,3l1.7-1.6c1.2-1,2.6-1.3,3.3-1.3Z"/>
          <path class="cls-3" d="M227,250.3v70.8H77.3c-1.6,0-3.1-.6-4.2-1.8L1.9,248.2c-.7-.7-1.1-1.5-1.1-1.5-.6-.9-.7-2-.7-2C0,244.3,0,243.5,0,243.5v-1.2C0,249,7.9,250.3,7.9,250.3h219Z"/>
        </g>
        <g>
          <g>
            <path class="cls-2" d="M348.6,301.5h-26.5v-101.5h26.5v101.5h0Z"/>
            <path class="cls-2" d="M464.6,236.7v64.8h-26.5v-60.9c0-4.3-.6-8-1.7-11.1-1.2-3.1-3-5.5-5.6-7.3s-6.2-2.6-10.7-2.6-7.5.7-10.5,2.1-5.5,3.4-7.4,5.8c-1.6,2.1-2.9,4.4-3.8,6.9v66.9h-26.5v-101.5h26.5l-.9,21.4h1.3c1.1-4.5,3-8.6,5.5-12.1,2.6-3.6,6.1-6.4,10.6-8.6,4.5-2.1,10-3.1,16.7-3.1s14.2,1.4,18.9,4.4c4.9,3,8.5,7.3,10.7,13.1,2.3,5.8,3.4,13,3.4,21.5h0Z"/>
            <path class="cls-2" d="M521.4,304c-8.1,0-15.3-.8-21.7-2.4s-11.7-3.3-16.1-5.2l-2.4-23c5.2,2.4,11.1,4.5,17.4,6.3,6.3,1.8,13.3,2.7,20.8,2.7s11.4-.8,14.4-2.5,4.4-4.3,4.4-7.6v-.6c0-2.3-.7-4.2-2-5.6s-3.7-2.7-7.1-3.9c-3.3-1.2-8.1-2.5-14.3-3.9-8.5-2-15.2-4.3-20.1-7-5-2.6-8.5-5.9-10.6-9.9-2.1-3.9-3.2-8.6-3.2-14v-.9c0-9.6,3.4-16.8,10.2-21.7,6.8-4.9,16.9-7.3,30.3-7.3s15,.7,21.1,2.4c6.1,1.5,11.2,3.4,15.2,5.5l2.4,21.1c-4.9-2.3-10.2-4.2-16.3-5.7-5.9-1.5-12.5-2.4-19.4-2.4s-8,.4-10.6,1.1-4.4,1.8-5.6,3.1c-1.1,1.3-1.7,2.9-1.7,4.8v.5c0,2,.6,3.8,1.8,5.4s3.4,2.9,6.7,4,7.7,2.5,13.7,3.9c8.6,1.8,15.5,3.9,20.6,6.3s8.9,5.5,11.3,9.3,3.6,8.7,3.6,14.8v1.2c0,10.5-3.6,18.3-10.7,23.6-7.1,5.1-17.8,7.7-32.2,7.7h.1c0,.1,0,.1,0,.1Z"/>
            <path class="cls-2" d="M648.2,276.6l-2.3,22.1c-3.4,1.5-7.4,2.9-11.9,3.7-4.4.9-9.3,1.3-14.3,1.3h-.1c-8.6.1-15.5-1.2-20.6-3.8s-8.8-6.5-11.1-11.8c-2.3-5.2-3.4-11.7-3.4-19.4v-46.9h-14.8v-20.9h15v-24.9l26.3-2.7-1,27.6h37.2l-2.3,20.9h-34.1v43.1c0,5.5,1.3,9.6,3.8,12.1,2.5,2.6,6.9,3.9,13.3,3.9s7.4-.4,10.7-1.2c3.4-.8,6.7-1.9,9.5-3.2h0Z"/>
            <path class="cls-2" d="M746.7,222.2c-1.5-5.1-3.9-9.4-7.4-13.1-3.3-3.7-8-6.4-13.7-8.5-5.8-2-12.7-3-21.1-3s-10.7.4-15.6,1.3c-4.9.8-9.2,2-13.1,3.4s-7.5,3-10.5,4.5l-2.3,21.1c5.1-2.4,10.8-4.5,16.9-6.3,6.2-1.8,11.4-2.7,19.6-2.7s14.2,1.5,17.7,4.6c3.4,2.9,5.3,7.3,5.6,13.3l-26.4,3.6c-13.2,1.8-22.8,5-28.9,9.8-6.2,4.8-9.2,12-9.2,21.9v2.9c0,9.3,2.7,16.5,8,21.5,5.2,5,12.8,7.5,22.8,7.5v.4c7.1,0,12.8-1.2,17.4-3.2,4.5-2,8-4.9,10.3-8.5,2.5-3.6,4.3-7.5,5.4-11.9h1.2l-.8,20.8h26.2v-62.7c0-6.1-.7-11.7-2.3-16.8h0ZM718.8,275.7c-2,2.4-4.8,4.3-8,5.7s-6.7,2.1-11.7,2.1-8.8-1.1-11.2-3.2c-2.4-2-3.6-5-3.6-8.8v-1.1c0-3.8,1.3-6.8,3.7-8.8,2.5-2,6.5-3.4,12.4-4.2l22.6-3.3v14.2c-1,2.7-2.4,5.1-4.3,7.3h0Z"/>
            <path class="cls-2" d="M863.4,236.7v64.7h-.1c0,.1-26.5.1-26.5.1v-60.9c0-4.3-.6-8-1.7-11.1-1.2-3.1-3-5.5-5.6-7.3s-6.2-2.6-10.7-2.6-7.5.7-10.5,2.1-5.5,3.4-7.4,5.8c-1.6,2.1-2.9,4.4-3.8,6.9v66.9h-26.5v-101.5h26.5l-.9,21.4h1.3c1.1-4.5,3-8.6,5.6-12.1s6.1-6.4,10.6-8.6c4.5-2.1,10-3.1,16.7-3.1s14.2,1.4,18.9,4.4c4.9,3,8.5,7.3,10.7,13.1,2.3,5.8,3.4,13,3.4,21.5h0Z"/>
            <path class="cls-2" d="M927.8,304.2c-15.7,0-27.2-4.2-34.9-12.4-7.5-8.3-11.3-19.9-11.3-34.9v-12.4c0-14.9,3.8-26.4,11.4-34.6,7.6-8.2,19.2-12.4,34.7-12.4s7.9.4,11.4.9,6.8,1.5,9.8,2.6,5.5,2.3,7.7,3.6l2.1,22.2c-3.3-2.1-7.1-3.9-11.3-5.4s-8.9-2.1-14.4-2.1c-8.6,0-14.9,2.1-18.8,6.5-3.9,4.4-5.9,10.7-5.9,19v10.9c0,8.3,2,14.6,6.2,19.2,4,4.5,10.5,6.8,19,6.8s10.2-.7,14.5-2.1c4.2-1.4,8.1-3.2,11.8-5.2l-2.1,22.4c-3.3,1.9-7.6,3.7-12.7,5.1-5.1,1.4-10.8,2.3-17,2.3h-.2c0-.1,0-.1,0-.1Z"/>
            <path class="cls-2" d="M1058.9,217.9c-3.4-6.5-8.6-11.7-15.3-15.2-6.9-3.6-10.5-5.4-25.6-5.4s-26.5,4-34.5,12.1c-8,8.1-11.9,19.6-11.9,34.6v13.2c0,15.1,4.3,26.8,12.7,34.7,8.5,8,21.4,12,38.8,12h0c7.5.1,14.5-.6,20.7-2.1,6.2-1.5,11.7-3.4,16.3-6.1l2.3-20.9c-5.2,2.4-10.6,4.3-16.4,5.7-5.8,1.4-12.4,2.1-18.2,2.1s-10.7-.5-14.6-1.7-7-2.6-9.4-4.6-4-4.3-5-7c-1.1-2.7-1.5-5.6-1.5-8.8v-.5h60.2c0-.1,5.4-.1,5.4-.1.4-2.3.7-4.6.9-7.3.4-2.6.4-5.1.4-7.6v-3.6c0-9.2-1.7-17.1-5.1-23.7h0ZM997.2,240.3c0-7.3,1.8-12.8,5.1-16.8s8.6-5.9,15.7-5.9,8.8.8,11.9,2.6c3.1,1.8,5.4,4.3,6.9,7.6,1.5,3.3,2.3,7.4,2.3,12.1v2.6h-41.9v-2.3h0Z"/>
          </g>
          <g>
            <path class="cls-2" d="M409.4,37.3c-3.3-6.5-8.6-11.7-15.3-15.2-6.9-3.6-10.6-5.4-25.6-5.4s-26.5,4-34.5,12.1c-8,8.1-11.9,19.6-11.9,34.6v13.2c0,15.2,4.3,26.8,12.7,34.7,8.5,8,21.4,12,38.8,12h0c7.5.1,14.5-.7,20.7-2.1,6.3-1.5,11.7-3.4,16.3-6.1l2.3-20.9c-5.2,2.4-10.6,4.3-16.4,5.7s-12.4,2.1-18.2,2.1-10.7-.5-14.6-1.7-7-2.6-9.4-4.6c-2.4-2-3.9-4.3-5-7s-1.5-5.6-1.5-8.8v-.6h65.6c.4-2.3.7-4.6.9-7.3.4-2.6.4-5.1.4-7.6v-3.6c0-9.2-1.7-17.1-5.1-23.7h0ZM347.7,61.8v-2.1c0-7.3,1.8-12.8,5.1-16.8,3.3-3.9,8.6-5.9,15.7-5.9s8.8.8,11.9,2.6c3.1,1.8,5.4,4.3,6.9,7.6,1.5,3.3,2.3,7.4,2.3,12.1v2.5h-41.9Z"/>
            <path class="cls-2" d="M515.4,41.5c-1.5-5.1-3.9-9.4-7.4-13.1-3.4-3.7-8-6.4-13.7-8.5-5.8-2-12.7-3-21.1-3s-10.7.4-15.6,1.3c-4.9.8-9.2,2-13.1,3.4-3.8,1.4-7.3,3-10.3,4.5l-2.3,21.1c5.1-2.4,10.7-4.5,16.9-6.3,6.2-1.8,11.4-2.7,19.6-2.7s14.2,1.5,17.7,4.6c3.4,2.9,5.3,7.3,5.6,13.3l-26.3,3.6c-13.2,1.8-22.8,5-28.9,9.8-6.1,4.8-9.2,12-9.2,21.9v2.9c0,9.3,2.7,16.5,8,21.5s12.8,7.5,23,7.5v.4c7.1,0,13-1.1,17.4-3.2,4.4-2,7.7-4.9,10.2-8.5,2.5-3.6,4.3-7.5,5.4-11.9h1l-.8,20.8h26.1v-62.7c0-6.1-.7-11.7-2.3-16.8h0ZM487.7,95c-2,2.4-4.8,4.3-8,5.7s-6.7,2.1-11.7,2.1-8.8-1.2-11.2-3.2c-2.4-2-3.6-5-3.6-8.8v-1.1c0-3.8,1.2-6.8,3.7-8.8,2.5-2,6.5-3.4,12.4-4.2l22.5-3.2v14.5c-1,2.6-2.4,4.8-4.2,7Z"/>
            <path class="cls-2" d="M573.9,123.4c-8.2,0-15.3-.8-21.7-2.4s-11.7-3.3-16.1-5.2l-2.4-23c5.2,2.4,11.1,4.5,17.4,6.3s13.2,2.7,20.8,2.7,11.4-.8,14.4-2.5,4.4-4.3,4.4-7.6v-.6c0-2.3-.7-4.2-2-5.6-1.3-1.4-3.7-2.7-7.1-3.9-3.3-1.2-8.2-2.5-14.3-3.9-8.5-2-15.2-4.3-20.1-7-4.9-2.6-8.5-5.9-10.6-9.9-2.1-3.9-3.2-8.6-3.2-14v-.9c0-9.6,3.4-16.8,10.2-21.7,6.8-4.9,16.9-7.3,30.3-7.3s15,.7,21.1,2.4c6.1,1.5,11.2,3.4,15.2,5.5l2.4,21.1c-4.9-2.3-10.2-4.2-16.3-5.7-6.1-1.5-12.5-2.4-19.4-2.4s-8,.4-10.6,1.1-4.4,1.8-5.5,3.1c-1.1,1.3-1.7,2.9-1.7,4.8v.5c0,2,.6,3.8,1.8,5.4s3.4,2.9,6.7,4,7.9,2.5,13.7,3.9c8.6,1.8,15.5,3.9,20.6,6.3,5.2,2.4,8.9,5.5,11.3,9.3,2.4,3.8,3.6,8.7,3.6,14.8v1.2c0,10.5-3.6,18.3-10.7,23.6s-17.8,7.7-32.2,7.7h0c0,.1,0,.1,0,.1Z"/>
            <polygon class="cls-2" points="696.1 19.4 672.6 99 670.8 99 649.9 19.4 622.4 19.4 651.9 116.6 659.5 136.9 653.2 156.5 679.8 156.5 723.4 19.4 696.1 19.4"/>
          </g>
        </g>
      </g>
    </g>
  </g>
</svg>