<?xml version="1.0" encoding="UTF-8"?>
<svg xmlns="http://www.w3.org/2000/svg" version="1.1" viewBox="0 0 1014.8 137.9">
  <defs>
    <style>
      .cls-1 {
        fill: #5355ce;
      }
    </style>
  </defs>
  <!-- Generator: Adobe Illustrator 28.6.0, SVG Export Plug-In . SVG Version: 1.2.0 Build 709)  -->
  <g>
    <g id="Layer_1">
      <g id="Layer_2">
        <g id="Layer_1-2">
          <path class="cls-1" d="M43.3,110.1c-14.6,0-25.5-3.4-32.6-10.1C3.6,93.3,0,83.6,0,70.8v-11.1c0-12.6,3.3-22.3,10-29.1,6.7-6.8,16.4-10.2,29-10.2s15.7,1.5,21.5,4.5c5.7,3,10.1,7.3,12.9,12.8,2.9,5.5,4.3,12.2,4.3,19.9v3c0,2.1,0,4.2-.3,6.4-.2,2.2-.5,4.2-.8,6.1h-20.2c.2-3.2.3-6.2.3-9.1v-7.8c0-4-.6-7.4-1.9-10.2-1.3-2.8-3.2-4.9-5.8-6.4s-5.9-2.2-10-2.2c-6,0-10.4,1.7-13.2,5-2.8,3.3-4.3,8-4.3,14.1v17.1c0,2.7.4,5.1,1.3,7.4s2.2,4.2,4.2,5.9,4.6,2.9,7.9,3.9c3.3,1,7.4,1.4,12.3,1.4s10.4-.6,15.3-1.8,9.4-2.8,13.8-4.8l-1.9,17.6c-3.9,2.2-8.4,3.8-13.7,5.1-5.2,1.2-11.1,1.9-17.4,1.9h0ZM72.1,73.1H11.8v-14.8h60.3v14.8Z"/>
          <path class="cls-1" d="M114.6,110c-8.5,0-14.9-2.1-19.3-6.3-4.4-4.2-6.7-10.3-6.7-18.1v-2.4c0-8.3,2.6-14.4,7.7-18.4s13.2-6.7,24.3-8.2l24.2-3.3,1.3,14.4-22.3,3.2c-4.9.6-8.3,1.8-10.4,3.5s-3.1,4.2-3.1,7.4v.9c0,3.2,1,5.7,3,7.4s5.2,2.7,9.4,2.7,7.1-.6,9.8-1.8,5-2.8,6.7-4.8,3-4.2,3.8-6.7l3.1,11h-3.8c-.9,3.7-2.4,7-4.5,10s-4.9,5.4-8.6,7.1c-3.7,1.8-8.6,2.7-14.6,2.7h0v-.3ZM164.5,108h-22l.8-20.9-.6-1.9v-30.5c0-5.6-1.6-9.7-4.7-12.3-3-2.6-8-3.9-14.9-3.9s-11.3.8-16.5,2.3-9.9,3.3-14.2,5.3l1.9-17.7c2.6-1.3,5.5-2.6,8.7-3.8,3.3-1.2,6.9-2.2,11-2.9,4.1-.8,8.4-1.1,13.1-1.1,7,0,12.8.8,17.7,2.5,4.8,1.7,8.6,4,11.5,7.1s4.9,6.7,6.2,11c1.3,4.3,1.9,9,1.9,14.1v52.7h.1Z"/>
          <path class="cls-1" d="M211.7,110.1c-6.9,0-12.9-.7-18.2-2s-9.8-2.8-13.5-4.4l-2-19.3c4.4,2,9.3,3.8,14.6,5.3s11.1,2.3,17.5,2.3,9.6-.7,12.1-2.1,3.7-3.6,3.7-6.4v-.5c0-1.9-.6-3.5-1.7-4.7-1.1-1.2-3.1-2.3-6-3.3-2.8-1-6.9-2.1-12-3.3-7.1-1.7-12.8-3.6-16.9-5.9-4.1-2.2-7.1-5-8.9-8.3-1.8-3.3-2.7-7.2-2.7-11.8v-.8c0-8.1,2.9-14.1,8.6-18.2,5.7-4.1,14.2-6.1,25.5-6.1s12.6.6,17.7,2c5.1,1.3,9.4,2.9,12.8,4.6l2,17.7c-4.1-1.9-8.6-3.5-13.7-4.8-5.1-1.3-10.5-2-16.3-2s-6.7.3-8.9.9-3.7,1.5-4.6,2.6c-.9,1.1-1.4,2.4-1.4,4v.4c0,1.7.5,3.2,1.5,4.5s2.9,2.4,5.6,3.4,6.6,2.1,11.5,3.3c7.2,1.5,13,3.3,17.3,5.3,4.4,2,7.5,4.6,9.5,7.8,2,3.2,3,7.3,3,12.4v1c0,8.8-3,15.4-9,19.8s-15,6.5-27.1,6.5h0Z"/>
          <path class="cls-1" d="M413.5,107.8h-22.3V22.5h22.3v85.3h0Z"/>
          <path class="cls-1" d="M455.4,107.8h-22.3V22.5h22.3l-.9,20.8.9,1.8v62.7h0ZM511,107.8h-22.3v-51.2c0-3.6-.5-6.7-1.4-9.3-1-2.6-2.5-4.6-4.7-6.1s-5.2-2.2-9-2.2-6.3.6-8.8,1.8-4.6,2.9-6.2,4.9c-1.6,2.1-2.8,4.4-3.6,7l-3.5-12.2h4.2c.9-3.8,2.5-7.2,4.6-10.2,2.2-3,5.1-5.4,8.9-7.2s8.4-2.6,14-2.6,11.9,1.2,15.9,3.7c4.1,2.5,7.1,6.1,9,11s2.9,10.9,2.9,18.1v54.4h0Z"/>
          <path class="cls-1" d="M558.7,109.9c-6.8,0-12.9-.7-18.2-2s-9.8-2.8-13.5-4.4l-2-19.3c4.4,2,9.3,3.8,14.6,5.3s11.2,2.3,17.5,2.3,9.6-.7,12.1-2.1,3.7-3.6,3.7-6.4v-.5c0-1.9-.6-3.5-1.7-4.7-1.1-1.2-3.1-2.3-6-3.3-2.8-1-6.8-2.1-12-3.3-7.1-1.7-12.8-3.6-16.9-5.9-4.2-2.2-7.1-5-8.9-8.3-1.8-3.3-2.7-7.2-2.7-11.8v-.8c0-8.1,2.9-14.1,8.6-18.2,5.7-4.1,14.2-6.1,25.5-6.1s12.6.6,17.7,2c5.1,1.3,9.4,2.9,12.8,4.6l2,17.7c-4.1-1.9-8.6-3.5-13.7-4.8-5-1.3-10.5-2-16.3-2s-6.7.3-8.9.9-3.7,1.5-4.7,2.6c-.9,1.1-1.4,2.4-1.4,4v.4c0,1.7.5,3.2,1.5,4.5s2.9,2.4,5.6,3.4,6.5,2.1,11.5,3.3c7.2,1.5,13,3.3,17.3,5.3s7.5,4.6,9.5,7.8c2,3.2,3,7.3,3,12.4v1c0,8.8-3,15.4-9,19.8-6,4.3-15,6.5-27.1,6.5h.1Z"/>
          <path class="cls-1" d="M662.6,40.8h-63.2v-17.6h65.1l-1.9,17.6h0ZM641.3,109.7c-7.2,0-13-1.1-17.3-3.3-4.3-2.2-7.4-5.5-9.3-9.9-1.9-4.4-2.9-9.8-2.9-16.3V30.5h22.1v46.5c0,4.6,1.1,8.1,3.2,10.2,2.1,2.2,5.8,3.3,11.2,3.3s6.2-.3,9-1c2.9-.7,5.6-1.6,8-2.7l-1.9,18.6c-2.9,1.3-6.2,2.4-10,3.1-3.7.8-7.8,1.1-12,1.1h0ZM633.2,24.9h-21.2V2.3c0,0,22.1-2.3,22.1-2.3l-.9,24.9h0Z"/>
          <path class="cls-1" d="M700,109.9c-8.5,0-14.9-2.1-19.3-6.3-4.4-4.2-6.7-10.3-6.7-18.1v-2.4c0-8.3,2.5-14.4,7.7-18.4,5.1-4,13.2-6.7,24.3-8.2l24.2-3.3,1.3,14.4-22.3,3.2c-4.9.6-8.3,1.8-10.4,3.5-2,1.7-3.1,4.2-3.1,7.4v.9c0,3.2,1,5.7,3,7.4,2,1.8,5.2,2.7,9.4,2.7s7.1-.6,9.8-1.8c2.7-1.2,5-2.8,6.7-4.8s3-4.2,3.8-6.7l3.1,11h-3.8c-.9,3.7-2.4,7-4.5,10-2,3-4.9,5.4-8.7,7.1s-8.6,2.7-14.6,2.7h0v-.3ZM750,107.9h-22l.8-20.9-.6-1.9v-30.5c0-5.6-1.6-9.7-4.7-12.3-3-2.6-8-3.9-14.9-3.9s-11.3.8-16.5,2.3c-5.1,1.5-9.9,3.3-14.2,5.3l1.9-17.7c2.5-1.3,5.5-2.6,8.8-3.8,3.3-1.2,6.9-2.2,11-2.9,4.1-.8,8.4-1.1,13.1-1.1,7,0,12.8.8,17.7,2.5,4.8,1.7,8.7,4,11.5,7.1,2.9,3.1,4.9,6.7,6.2,11,1.3,4.3,1.9,9,1.9,14.1v52.7h0Z"/>
          <path class="cls-1" d="M790.5,107.8h-22.3V22.5h22.3l-.9,20.8.9,1.8v62.7h0ZM846.1,107.8h-22.3v-51.2c0-3.6-.5-6.7-1.4-9.3-1-2.6-2.5-4.6-4.7-6.1s-5.2-2.2-9-2.2-6.3.6-8.8,1.8-4.6,2.9-6.2,4.9c-1.6,2.1-2.8,4.4-3.6,7l-3.5-12.2h4.2c.9-3.8,2.5-7.2,4.7-10.2s5.1-5.4,8.9-7.2,8.4-2.6,14-2.6,11.9,1.2,15.9,3.7c4.1,2.5,7.1,6.1,9,11s2.9,10.9,2.9,18.1v54.4h-.1Z"/>
          <path class="cls-1" d="M900.3,110c-13.2,0-22.9-3.5-29.3-10.4-6.3-7-9.5-16.7-9.5-29.3v-10.4c0-12.5,3.2-22.2,9.6-29.1,6.4-6.9,16.1-10.4,29.2-10.4s6.6.3,9.6.8,5.7,1.3,8.2,2.2c2.5.9,4.6,1.9,6.5,3l1.8,18.7c-2.8-1.8-6-3.3-9.5-4.5s-7.5-1.8-12.1-1.8c-7.2,0-12.5,1.8-15.8,5.5s-5,9-5,16v9.2c0,7,1.7,12.3,5.2,16.1,3.4,3.8,8.8,5.7,16,5.7s8.6-.6,12.2-1.8c3.5-1.2,6.8-2.7,9.9-4.4l-1.8,18.8c-2.8,1.6-6.4,3.1-10.7,4.3-4.3,1.2-9.1,1.9-14.3,1.9h-.2Z"/>
          <path class="cls-1" d="M980.4,109.9c-14.6,0-25.5-3.4-32.6-10.1s-10.7-16.5-10.7-29.2v-11.1c0-12.6,3.3-22.3,10-29.1s16.3-10.2,29-10.2,15.7,1.5,21.5,4.5c5.7,3,10,7.3,12.9,12.8s4.3,12.2,4.3,19.9v3c0,2.1,0,4.2-.3,6.4-.2,2.2-.5,4.2-.8,6.1h-20.2c.2-3.2.3-6.2.3-9.1v-7.8c0-4-.6-7.4-1.9-10.2-1.3-2.8-3.2-4.9-5.8-6.4s-5.9-2.2-10-2.2c-6,0-10.4,1.7-13.2,5s-4.3,8-4.3,14.1v17.1c0,2.7.4,5.1,1.3,7.4.8,2.3,2.2,4.2,4.2,5.9s4.6,2.9,7.9,3.9,7.4,1.4,12.3,1.4,10.4-.6,15.3-1.8,9.4-2.8,13.8-4.8l-1.9,17.6c-3.9,2.2-8.5,3.8-13.7,5.1s-11.1,1.9-17.4,1.9h0ZM1009.2,73h-60.3v-14.8h60.3v14.8Z"/>
          <polygon class="cls-1" points="314.4 22.7 294.6 89.6 293.1 89.6 275.5 22.7 252.4 22.7 277.2 104.4 283.6 121.4 278.3 137.9 300.7 137.9 337.3 22.7 314.4 22.7"/>
        </g>
      </g>
    </g>
  </g>
</svg>