<?xml version="1.0" encoding="UTF-8"?>
<svg xmlns="http://www.w3.org/2000/svg" version="1.1" xmlns:xlink="http://www.w3.org/1999/xlink" viewBox="0 0 800 800">
  <defs>
    <style>
      .cls-1 {
        fill: url(#linear-gradient-2);
      }

      .cls-2 {
        fill: url(#linear-gradient-4);
      }

      .cls-3 {
        fill: url(#linear-gradient-3);
      }

      .cls-4 {
        fill: url(#linear-gradient);
      }
    </style>
    <linearGradient id="linear-gradient" x1="181.8" y1="714.7" x2="871.3" y2="714.7" gradientTransform="translate(0 802.9) scale(1 -1)" gradientUnits="userSpaceOnUse">
      <stop offset="0" stop-color="#363ca3"/>
      <stop offset="0" stop-color="#3e43b0"/>
      <stop offset=".2" stop-color="#4a4dc0"/>
      <stop offset=".3" stop-color="#5053ca"/>
      <stop offset=".4" stop-color="#5355ce"/>
      <stop offset=".6" stop-color="#676ad8"/>
      <stop offset=".9" stop-color="#9ca0f2"/>
      <stop offset="1" stop-color="#b6baff"/>
    </linearGradient>
    <linearGradient id="linear-gradient-2" x1="224.7" y1="404.7" x2="760.9" y2="404.7" gradientTransform="translate(0 802.9) scale(1 -1)" gradientUnits="userSpaceOnUse">
      <stop offset="0" stop-color="#363ca3"/>
      <stop offset="0" stop-color="#373da4"/>
      <stop offset="0" stop-color="#4347b7"/>
      <stop offset=".2" stop-color="#4c4fc4"/>
      <stop offset=".2" stop-color="#5153cb"/>
      <stop offset=".5" stop-color="#5355ce"/>
      <stop offset=".8" stop-color="#8689e7"/>
      <stop offset="1" stop-color="#b6baff"/>
    </linearGradient>
    <linearGradient id="linear-gradient-3" x1="211.7" y1="802.9" x2="211.7" y2="12.8" gradientTransform="translate(0 802.9) scale(1 -1)" gradientUnits="userSpaceOnUse">
      <stop offset="0" stop-color="#b6baff"/>
      <stop offset="0" stop-color="#b0b4fc"/>
      <stop offset=".2" stop-color="#888be8"/>
      <stop offset=".3" stop-color="#6a6dd9"/>
      <stop offset=".4" stop-color="#595bd1"/>
      <stop offset=".5" stop-color="#5355ce"/>
      <stop offset=".6" stop-color="#4549b9"/>
      <stop offset=".8" stop-color="#363ca3"/>
    </linearGradient>
    <linearGradient id="linear-gradient-4" x1="193" y1="13.4" x2="667.9" y2="214.4" gradientTransform="translate(0 802.9) scale(1 -1)" gradientUnits="userSpaceOnUse">
      <stop offset="0" stop-color="#b6baff"/>
      <stop offset=".2" stop-color="#8c90ea"/>
      <stop offset=".3" stop-color="#6d6fdb"/>
      <stop offset=".4" stop-color="#595cd1"/>
      <stop offset=".5" stop-color="#5355ce"/>
      <stop offset=".7" stop-color="#4649ba"/>
      <stop offset=".9" stop-color="#363ca3"/>
    </linearGradient>
  </defs>
  <!-- Generator: Adobe Illustrator 28.6.0, SVG Export Plug-In . SVG Version: 1.2.0 Build 709)  -->
  <g>
    <g id="Layer_2">
      <g id="Layer_1-2">
        <g>
          <path class="cls-4" d="M680.3,0v176.5H124.7L296.8,4.4c2.8-2.8,6.6-4.4,10.5-4.4h373,0Z"/>
          <rect class="cls-1" x="291.7" y="310" width="253.2" height="176.5"/>
          <path class="cls-3" d="M306.1,0c-12.2,1.2-12.3,19.7-12.3,19.7v770.3l-172.1-172.1c-2.8-2.8-4.4-6.6-4.4-10.5V190c0-3.9,1.6-7.7,4.4-10.5L293.7,7.4l4.2-4.1c3.1-2.5,6.4-3.2,8.2-3.3Z"/>
          <path class="cls-2" d="M682.8,623.5v176.5h-373c-3.9,0-7.7-1.6-10.5-4.4l-177.3-177.3c-1.8-1.7-2.8-3.6-2.8-3.6-1.4-2.4-1.7-4.9-1.7-4.9-.2-1.1-.2-3-.2-3v-3c0,16.5,19.8,19.7,19.8,19.7h545.7Z"/>
        </g>
      </g>
    </g>
  </g>
</svg>