<?xml version="1.0" encoding="UTF-8"?>
<svg id="Layer_2" xmlns="http://www.w3.org/2000/svg" viewBox="0 0 621 196">
  <defs>
    <style>
      .cls-1 {
        fill: #8f8f8f;
      }

      .cls-2 {
        fill: #714b67;
      }
    </style>
  </defs>
  <g id="Layer_1-2" data-name="Layer_1">
    <path class="cls-1" d="M546,46c-41.42,0-75,33.58-75,75s33.58,75,75,75c20.71,0,39.46-8.39,53.03-21.97,13.57-13.57,21.97-32.32,21.97-53.03,0-41.42-33.58-75-75-75ZM546,165c-24.3,0-44-19.7-44-44s19.7-44,44-44,44,19.7,44,44-19.7,44-44,44Z"/>
    <path class="cls-1" d="M389,46c-41.42,0-75,33.58-75,75s33.58,75,75,75c20.71,0,39.46-8.39,53.03-21.97,13.57-13.57,21.97-32.32,21.97-53.03,0-41.42-33.58-75-75-75ZM389,165c-24.3,0-44-19.7-44-44s19.7-44,44-44,44,19.7,44,44-19.7,44-44,44Z"/>
    <path class="cls-1" d="M291.5,0c-8.2,0-15.5,6.8-15.5,15.1v43.5c-12.4-9.1-27.6-12.6-44-12.6-44.5,0-75,32.2-75,74.1s33.6,75.9,75,75.9,75-34.1,75-76V15.1c0-8.3-7.3-15.1-15.5-15.1ZM232,165c-24.3,0-44-19.7-44-44s19.7-44,44-44,44,19.7,44,44-19.7,44-44,44Z"/>
    <path class="cls-2" d="M75,196C33.58,196,0,162.42,0,121S33.58,46,75,46s75,33.58,75,75h0c0,41.42-33.58,75-75,75ZM75,165c24.3,0,44-19.7,44-44s-19.7-44-44-44-44,19.7-44,44,19.7,44,44,44Z"/>
  </g>
</svg>