<?xml version="1.0" encoding="UTF-8"?>
<svg xmlns="http://www.w3.org/2000/svg" version="1.1" viewBox="0 0 627.7 201.9">
  <defs>
    <style>
      .cls-1 {
        fill: #8f8f8f;
      }

      .cls-2 {
        fill: #714b67;
      }
    </style>
  </defs>
  <!-- Generator: Adobe Illustrator 28.6.0, SVG Export Plug-In . SVG Version: 1.2.0 Build 709)  -->
  <g>
    <g id="Layer_1">
      <path class="cls-1" d="M548.9,197.5c-41.4,0-75-33.6-75-75s33.6-75,75-75,75,33.6,75,75h0c0,41.4-33.6,75-75,75ZM548.9,166.5c24.3,0,44-19.7,44-44s-19.7-44-44-44-44,19.7-44,44,19.7,44,44,44ZM391.9,197.5c-41.4,0-75-33.6-75-75s33.6-75,75-75,75,33.6,75,75h0c0,41.4-33.6,75-75,75ZM391.9,166.5c24.3,0,44-19.7,44-44s-19.7-44-44-44-44,19.7-44,44,19.7,44,44,44ZM309.9,121.5c0,41.9-33.6,76-75,76s-75-34-75-75.9,30.5-74.1,75-74.1,31.6,3.5,44,12.6V16.6c0-8.3,7.3-15.1,15.5-15.1s15.5,6.8,15.5,15.1v104.9ZM234.9,166.5c24.3,0,44-19.7,44-44s-19.7-44-44-44-44,19.7-44,44,19.7,44,44,44Z"/>
      <path class="cls-2" d="M77.9,197.5c-41.4,0-75-33.6-75-75S36.4,47.5,77.9,47.5s75,33.6,75,75h0c0,41.4-33.6,75-75,75ZM77.9,166.5c24.3,0,44-19.7,44-44s-19.7-44-44-44-44,19.7-44,44,19.7,44,44,44Z"/>
      <path class="cls-1" d="M171.6-404.9c-41.4,0-75,33.6-75,75s33.6,75,75,75,39.5-8.4,53-22c13.6-13.6,22-32.3,22-53,0-41.4-33.6-75-75-75ZM171.6-285.9c-24.3,0-44-19.7-44-44s19.7-44,44-44,44,19.7,44,44-19.7,44-44,44Z"/>
      <path class="cls-1" d="M14.6-404.9c-41.4,0-75,33.6-75,75S-26.8-254.9,14.6-254.9s39.5-8.4,53-22c13.6-13.6,22-32.3,22-53,0-41.4-33.6-75-75-75ZM14.6-285.9c-24.3,0-44-19.7-44-44s19.7-44,44-44,44,19.7,44,44-19.7,44-44,44Z"/>
      <path class="cls-1" d="M-82.9-450.9c-8.2,0-15.5,6.8-15.5,15.1v43.5c-12.4-9.1-27.6-12.6-44-12.6-44.5,0-75,32.2-75,74.1s33.6,75.9,75,75.9,75-34.1,75-76v-104.9c0-8.3-7.3-15.1-15.5-15.1ZM-142.4-285.9c-24.3,0-44-19.7-44-44s19.7-44,44-44,44,19.7,44,44-19.7,44-44,44Z"/>
      <path class="cls-2" d="M-299.3-254.9c-41.4,0-75-33.6-75-75s33.6-75,75-75,75,33.6,75,75h0c0,41.4-33.6,75-75,75ZM-299.3-285.9c24.3,0,44-19.7,44-44s-19.7-44-44-44-44,19.7-44,44,19.7,44,44,44Z"/>
    </g>
  </g>
</svg>