<?xml version="1.0" encoding="UTF-8"?>
<svg xmlns="http://www.w3.org/2000/svg" version="1.1" xmlns:xlink="http://www.w3.org/1999/xlink" viewBox="0 0 183.5 50">
  <defs>
    <style>
      .cls-1 {
        fill: none;
      }

      .cls-2 {
        fill: #1a1a1c;
      }

      .cls-3 {
        fill: #f9eb57;
      }

      .cls-4 {
        clip-path: url(#clippath);
      }
    </style>
    <clipPath id="clippath">
      <rect class="cls-1" x="167.5" width="16" height="16"/>
    </clipPath>
  </defs>
  <!-- Generator: Adobe Illustrator 28.6.0, SVG Export Plug-In . SVG Version: 1.2.0 Build 709)  -->
  <g>
    <g id="Layer_1">
      <path class="cls-3" d="M22.5,7.5h132.7c12.4,0,22.5,9.4,22.5,21h0c0,11.6-10.1,21-22.5,21H22.5C10.1,49.5,0,40.1,0,28.5h0C0,16.9,10.1,7.5,22.5,7.5Z"/>
      <g class="cls-4">
        <path class="cls-2" d="M183,0l-15.1,5c-.4.1-.4.4,0,.5l7.2,2.9,3.6,7.2c.2.4.5.4.6,0l4.3-15.1c.1-.4-.1-.6-.5-.5Z"/>
      </g>
      <g>
        <path d="M21.5,24v9.8h-1.3v-9.8h1.3Z"/>
        <path d="M29.7,26.8c.6.6.9,1.4.9,2.5v4.6h-1.3v-4.4c0-.8-.2-1.4-.6-1.8-.4-.4-.9-.6-1.6-.6s-1.2.2-1.6.6c-.4.4-.6,1-.6,1.9v4.3h-1.3v-7.7h1.3v1.1c.3-.4.6-.7,1-.9.4-.2.9-.3,1.4-.3.9,0,1.7.3,2.3.9Z"/>
        <path d="M33.9,33.7c-.5-.2-.8-.5-1.1-.8-.3-.4-.4-.8-.5-1.3h1.3c0,.4.2.7.5.9.3.2.8.4,1.3.4s.9-.1,1.2-.3.4-.5.4-.8-.2-.6-.5-.8c-.3-.2-.8-.3-1.4-.5-.6-.2-1-.3-1.4-.5-.4-.2-.7-.4-.9-.7s-.4-.7-.4-1.2.1-.8.4-1.1c.2-.3.6-.6,1-.8s.9-.3,1.5-.3c.9,0,1.5.2,2.1.6s.8,1,.8,1.8h-1.3c0-.4-.2-.7-.5-1-.3-.2-.7-.4-1.2-.4s-.8,0-1.1.3c-.3.2-.4.5-.4.8s0,.5.2.6c.2.2.4.3.6.4.2,0,.6.2,1,.3.6.2,1,.3,1.4.4s.6.4.9.7c.2.3.4.7.4,1.1,0,.4-.1.8-.4,1.1s-.6.6-1,.8-.9.3-1.5.3-1.1-.1-1.6-.3Z"/>
        <path d="M41.7,27.2v4.6c0,.4,0,.6.2.8.2.2.4.2.8.2h.9v1.1h-1.2c-.7,0-1.3-.2-1.6-.5s-.5-.9-.5-1.6v-4.6h-1v-1.1h1v-1.9h1.3v1.9h2v1.1h-2Z"/>
        <path d="M45.2,27.9c.3-.6.8-1.1,1.3-1.4s1.2-.5,1.9-.5,1.3.1,1.8.4c.5.3.9.7,1.1,1.1v-1.4h1.3v7.7h-1.3v-1.4c-.3.5-.6.8-1.1,1.1s-1.1.4-1.8.4-1.3-.2-1.9-.5c-.6-.3-1-.8-1.3-1.4-.3-.6-.5-1.3-.5-2.1s.2-1.5.5-2.1ZM51,28.4c-.2-.4-.6-.8-1-1-.4-.2-.8-.3-1.3-.3s-.9.1-1.3.3c-.4.2-.7.6-.9,1s-.4.9-.4,1.5.1,1.1.4,1.5c.2.4.6.8.9,1s.8.3,1.3.3.9-.1,1.3-.3.7-.6,1-1c.2-.4.4-.9.4-1.5s-.1-1.1-.4-1.5Z"/>
        <path d="M60.9,26.8c.6.6.9,1.4.9,2.5v4.6h-1.3v-4.4c0-.8-.2-1.4-.6-1.8-.4-.4-.9-.6-1.6-.6s-1.2.2-1.6.6c-.4.4-.6,1-.6,1.9v4.3h-1.3v-7.7h1.3v1.1c.3-.4.6-.7,1-.9.4-.2.9-.3,1.4-.3.9,0,1.7.3,2.3.9Z"/>
        <path d="M65.4,27.2v4.6c0,.4,0,.6.2.8.2.2.4.2.8.2h.9v1.1h-1.2c-.7,0-1.3-.2-1.6-.5s-.5-.9-.5-1.6v-4.6h-1v-1.1h1v-1.9h1.3v1.9h2v1.1h-2Z"/>
        <path d="M78.6,24.6c.8.4,1.4,1,1.8,1.7.4.7.6,1.6.6,2.6s-.2,1.9-.6,2.6c-.4.7-1,1.3-1.8,1.7s-1.7.6-2.8.6h-3.1v-9.8h3.1c1.1,0,2,.2,2.8.6ZM78.7,31.8c.7-.7,1-1.6,1-2.8s-.3-2.2-1-2.9c-.7-.7-1.6-1-2.9-1h-1.8v7.7h1.8c1.3,0,2.2-.3,2.9-1Z"/>
        <path d="M89.8,30.5h-6.2c0,.8.3,1.4.8,1.8.5.4,1.1.6,1.7.6s1-.1,1.4-.4c.4-.3.6-.6.8-1h1.4c-.2.7-.6,1.3-1.2,1.8s-1.4.7-2.3.7-1.4-.2-2-.5-1-.8-1.4-1.4c-.3-.6-.5-1.3-.5-2.1s.2-1.5.5-2.1c.3-.6.8-1.1,1.3-1.4.6-.3,1.2-.5,2-.5s1.4.2,2,.5c.6.3,1,.8,1.3,1.3.3.6.5,1.2.5,1.9s0,.5,0,.8ZM88.2,28.2c-.2-.4-.5-.6-.9-.8s-.8-.3-1.2-.3c-.6,0-1.2.2-1.7.6s-.7,1-.8,1.7h4.9c0-.5-.1-.9-.3-1.3Z"/>
        <path d="M93.9,26.4c.5-.3,1.1-.4,1.8-.4s1.3.2,1.9.5,1,.8,1.3,1.4c.3.6.5,1.3.5,2.1s-.2,1.5-.5,2.1c-.3.6-.8,1.1-1.3,1.4-.6.3-1.2.5-1.9.5s-1.2-.1-1.7-.4-.9-.7-1.2-1.1v5.1h-1.3v-11.4h1.3v1.4c.3-.4.6-.8,1.1-1.1ZM97.7,28.4c-.2-.4-.6-.8-1-1-.4-.2-.8-.3-1.3-.3s-.9.1-1.3.3c-.4.2-.7.6-1,1s-.4.9-.4,1.5.1,1.1.4,1.5c.2.4.6.8,1,1s.8.3,1.3.3.9-.1,1.3-.3.7-.6,1-1c.2-.4.4-1,.4-1.5s-.1-1.1-.4-1.5Z"/>
        <path d="M102.3,23.4v10.5h-1.3v-10.5h1.3Z"/>
        <path d="M105.9,33.5c-.6-.3-1.1-.8-1.4-1.4s-.5-1.3-.5-2.1.2-1.5.5-2.1.8-1.1,1.4-1.4c.6-.3,1.3-.5,2-.5s1.4.2,2,.5c.6.3,1.1.8,1.4,1.4.3.6.5,1.3.5,2.1s-.2,1.5-.5,2.1c-.4.6-.8,1.1-1.4,1.4-.6.3-1.3.5-2,.5s-1.4-.2-2-.5ZM109.2,32.5c.4-.2.7-.5,1-1s.4-1,.4-1.6-.1-1.2-.4-1.6c-.2-.4-.6-.8-1-1-.4-.2-.8-.3-1.3-.3s-.9.1-1.3.3c-.4.2-.7.5-.9,1-.2.4-.4,1-.4,1.6s.1,1.2.3,1.6.5.8.9,1c.4.2.8.3,1.3.3s.9-.1,1.3-.3Z"/>
        <path d="M120.2,26.1l-4.7,11.4h-1.3l1.5-3.7-3.1-7.7h1.4l2.4,6.3,2.4-6.3h1.3Z"/>
        <path d="M132.5,26.3c.5.2.8.6,1.1,1.1.3.5.4,1.1.4,1.8v4.6h-1.3v-4.4c0-.8-.2-1.4-.6-1.8-.4-.4-.9-.6-1.5-.6s-1.2.2-1.6.6c-.4.4-.6,1-.6,1.9v4.3h-1.3v-4.4c0-.8-.2-1.4-.6-1.8-.4-.4-.9-.6-1.5-.6s-1.2.2-1.6.6c-.4.4-.6,1-.6,1.9v4.3h-1.3v-7.7h1.3v1.1c.3-.4.6-.7,1-.9.4-.2.9-.3,1.4-.3s1.2.1,1.7.4c.5.3.9.7,1.1,1.3.2-.5.6-1,1.1-1.3.5-.3,1.1-.5,1.7-.5s1.1.1,1.6.4Z"/>
        <path d="M143.1,30.5h-6.2c0,.8.3,1.4.8,1.8.5.4,1.1.6,1.7.6s1-.1,1.4-.4c.4-.3.6-.6.8-1h1.4c-.2.7-.6,1.3-1.2,1.8s-1.4.7-2.3.7-1.4-.2-2-.5c-.6-.3-1-.8-1.4-1.4s-.5-1.3-.5-2.1.2-1.5.5-2.1c.3-.6.8-1.1,1.3-1.4.6-.3,1.2-.5,2-.5s1.4.2,1.9.5c.6.3,1,.8,1.3,1.3s.5,1.2.5,1.9,0,.5,0,.8ZM141.5,28.2c-.2-.4-.5-.6-.9-.8-.4-.2-.8-.3-1.2-.3-.7,0-1.2.2-1.7.6-.5.4-.7,1-.8,1.7h4.9c0-.5-.1-.9-.3-1.3Z"/>
        <path d="M150.9,26.8c.6.6.9,1.4.9,2.5v4.6h-1.3v-4.4c0-.8-.2-1.4-.6-1.8-.4-.4-.9-.6-1.6-.6s-1.2.2-1.6.6-.6,1-.6,1.9v4.3h-1.3v-7.7h1.3v1.1c.3-.4.6-.7,1-.9s.9-.3,1.4-.3c.9,0,1.7.3,2.3.9Z"/>
        <path d="M155.5,27.2v4.6c0,.4,0,.6.2.8.2.2.4.2.8.2h.9v1.1h-1.2c-.7,0-1.3-.2-1.6-.5-.4-.3-.5-.9-.5-1.6v-4.6h-1v-1.1h1v-1.9h1.3v1.9h2v1.1h-2Z"/>
      </g>
    </g>
  </g>
</svg>