<?xml version="1.0" encoding="UTF-8"?>
<svg xmlns="http://www.w3.org/2000/svg" version="1.1" xmlns:xlink="http://www.w3.org/1999/xlink" viewBox="0 0 162.1 47">
  <defs>
    <style>
      .cls-1 {
        fill: #c6f56f;
      }

      .cls-2 {
        fill: none;
      }

      .cls-3 {
        fill: #1a1a1c;
      }

      .cls-4 {
        clip-path: url(#clippath);
      }
    </style>
    <clipPath id="clippath">
      <rect class="cls-2" width="16" height="16"/>
    </clipPath>
  </defs>
  <!-- Generator: Adobe Illustrator 28.6.0, SVG Export Plug-In . SVG Version: 1.2.0 Build 709)  -->
  <g>
    <g id="Layer_1">
      <path class="cls-1" d="M34.9,6h101.2c14.3,0,25.9,9.2,25.9,20.5h0c0,11.3-11.6,20.5-25.9,20.5H34.9c-14.3,0-25.9-9.2-25.9-20.5h0c0-11.3,11.6-20.5,25.9-20.5Z"/>
      <g class="cls-4">
        <path class="cls-3" d="M.6,0l15.1,5c.4.1.4.4,0,.5l-7.2,2.9-3.6,7.2c-.2.4-.5.4-.6,0L0,.5C0,.1.2,0,.6,0Z"/>
      </g>
      <g>
        <path d="M33.5,28.4h-3.6l-.7,1.9h-1.2l3-8.3h1.3l3,8.3h-1.2l-.7-1.9ZM33.2,27.5l-1.5-4.2-1.5,4.2h3Z"/>
        <path d="M42.5,23.7v6.6h-1.1v-1c-.2.3-.5.6-.9.8-.4.2-.8.3-1.2.3s-1-.1-1.4-.3c-.4-.2-.7-.5-1-1-.2-.4-.4-.9-.4-1.5v-3.9h1.1v3.7c0,.6.2,1.1.5,1.5.3.3.8.5,1.3.5s1-.2,1.4-.5c.3-.4.5-.9.5-1.6v-3.6h1.1Z"/>
        <path d="M45.7,24.6v3.9c0,.3,0,.5.2.7s.4.2.7.2h.8v.9h-1c-.6,0-1.1-.1-1.4-.4-.3-.3-.5-.7-.5-1.4v-3.9h-.9v-.9h.9v-1.7h1.1v1.7h1.7v.9h-1.7Z"/>
        <path d="M49.9,29.9c-.5-.3-.9-.7-1.2-1.2-.3-.5-.4-1.1-.4-1.8s.1-1.3.4-1.8c.3-.5.7-.9,1.2-1.2.5-.3,1.1-.4,1.7-.4s1.2.1,1.7.4c.5.3.9.7,1.2,1.2s.4,1.1.4,1.8-.2,1.3-.5,1.8-.7.9-1.2,1.2-1.1.4-1.7.4-1.2-.1-1.7-.4ZM52.7,29.1c.3-.2.6-.5.8-.8.2-.4.3-.8.3-1.3s-.1-1-.3-1.3-.5-.6-.8-.8-.7-.3-1.1-.3-.8,0-1.1.3c-.3.2-.6.5-.8.8-.2.4-.3.8-.3,1.3s0,1,.3,1.4c.2.4.5.6.8.8.3.2.7.3,1.1.3s.8,0,1.1-.3Z"/>
        <path d="M65.7,23.9c.4.2.7.5.9,1,.2.4.3.9.3,1.5v3.9h-1.1v-3.7c0-.7-.2-1.2-.5-1.5-.3-.3-.8-.5-1.3-.5s-1,.2-1.4.5c-.3.4-.5.9-.5,1.6v3.6h-1.1v-3.7c0-.7-.2-1.2-.5-1.5-.3-.3-.8-.5-1.3-.5s-1,.2-1.4.5c-.3.4-.5.9-.5,1.6v3.6h-1.1v-6.6h1.1v.9c.2-.3.5-.6.9-.8.4-.2.8-.3,1.2-.3s1,.1,1.5.4c.4.2.7.6.9,1.1.2-.5.5-.8.9-1.1s.9-.4,1.4-.4,1,.1,1.4.3Z"/>
        <path d="M68.7,25.2c.3-.5.6-.9,1.1-1.2s1-.4,1.6-.4,1.1.1,1.5.4.7.6.9.9v-1.2h1.1v6.6h-1.1v-1.2c-.2.4-.5.7-1,1-.4.3-.9.4-1.5.4s-1.1-.1-1.6-.4c-.5-.3-.8-.7-1.1-1.2-.3-.5-.4-1.1-.4-1.8s.1-1.3.4-1.8ZM73.6,25.7c-.2-.4-.5-.7-.8-.8-.3-.2-.7-.3-1.1-.3s-.8,0-1.1.3c-.3.2-.6.5-.8.8-.2.4-.3.8-.3,1.3s.1.9.3,1.3c.2.4.5.7.8.9s.7.3,1.1.3.8,0,1.1-.3.6-.5.8-.9c.2-.4.3-.8.3-1.3s-.1-.9-.3-1.3Z"/>
        <path d="M78.2,24.6v3.9c0,.3,0,.5.2.7s.4.2.7.2h.8v.9h-1c-.6,0-1.1-.1-1.4-.4-.3-.3-.5-.7-.5-1.4v-3.9h-.9v-.9h.9v-1.7h1.1v1.7h1.7v.9h-1.7Z"/>
        <path d="M81.3,22.4c-.1-.1-.2-.3-.2-.5s0-.4.2-.5.3-.2.5-.2.4,0,.5.2.2.3.2.5,0,.4-.2.5-.3.2-.5.2-.4,0-.5-.2ZM82.3,23.7v6.6h-1.1v-6.6h1.1Z"/>
        <path d="M84.2,25.2c.3-.5.7-.9,1.1-1.2.5-.3,1-.4,1.7-.4s1.5.2,2,.6c.5.4.9.9,1,1.6h-1.2c-.1-.4-.3-.7-.7-.9-.3-.2-.7-.3-1.2-.3s-1.1.2-1.5.6c-.4.4-.6,1-.6,1.8s.2,1.4.6,1.8.9.6,1.5.6.9-.1,1.2-.3c.3-.2.5-.5.7-1h1.2c-.2.7-.5,1.2-1.1,1.6-.5.4-1.2.6-2,.6s-1.2-.1-1.7-.4c-.5-.3-.9-.7-1.1-1.2-.3-.5-.4-1.1-.4-1.8s.1-1.3.4-1.8Z"/>
        <path d="M95.7,21.9v5.3c0,.7.2,1.3.5,1.7.4.4.9.5,1.5.5s1.1-.2,1.5-.5c.4-.4.5-.9.5-1.7v-5.3h1.1v5.3c0,.7-.1,1.3-.4,1.8-.3.5-.7.8-1.1,1.1-.5.2-1,.3-1.6.3s-1.1-.1-1.6-.3c-.5-.2-.9-.6-1.1-1.1-.3-.5-.4-1.1-.4-1.8v-5.3h1.1Z"/>
        <path d="M104.8,24c.4-.3.9-.4,1.5-.4s1.1.1,1.6.4c.5.3.8.7,1.1,1.2.3.5.4,1.1.4,1.8s-.1,1.3-.4,1.8c-.3.5-.6.9-1.1,1.2-.5.3-1,.4-1.6.4s-1.1-.1-1.5-.4-.8-.6-1-.9v4.3h-1.1v-9.7h1.1v1.2c.2-.4.5-.7,1-.9ZM108,25.7c-.2-.4-.5-.6-.8-.8-.3-.2-.7-.3-1.1-.3s-.8,0-1.1.3c-.3.2-.6.5-.8.9s-.3.8-.3,1.3.1.9.3,1.3.5.7.8.9.7.3,1.1.3.8,0,1.1-.3.6-.5.8-.9.3-.8.3-1.3-.1-.9-.3-1.3Z"/>
        <path d="M110.9,25.2c.3-.5.6-.9,1.1-1.2s1-.4,1.6-.4,1,.1,1.4.4c.4.2.8.5,1,.9v-3.5h1.1v8.9h-1.1v-1.2c-.2.4-.5.7-1,1s-.9.4-1.5.4-1.1-.1-1.6-.4c-.5-.3-.8-.7-1.1-1.2-.3-.5-.4-1.1-.4-1.8s.1-1.3.4-1.8ZM115.7,25.7c-.2-.4-.5-.7-.8-.8-.3-.2-.7-.3-1.1-.3s-.8,0-1.1.3c-.3.2-.6.5-.8.8-.2.4-.3.8-.3,1.3s.1.9.3,1.3c.2.4.5.7.8.9s.7.3,1.1.3.8,0,1.1-.3.6-.5.8-.9c.2-.4.3-.8.3-1.3s-.1-.9-.3-1.3Z"/>
        <path d="M119,25.2c.3-.5.6-.9,1.1-1.2s1-.4,1.6-.4,1.1.1,1.5.4.7.6.9.9v-1.2h1.1v6.6h-1.1v-1.2c-.2.4-.5.7-1,1-.4.3-.9.4-1.5.4s-1.1-.1-1.6-.4c-.5-.3-.8-.7-1.1-1.2-.3-.5-.4-1.1-.4-1.8s.1-1.3.4-1.8ZM123.9,25.7c-.2-.4-.5-.7-.8-.8-.3-.2-.7-.3-1.1-.3s-.8,0-1.1.3c-.3.2-.6.5-.8.8-.2.4-.3.8-.3,1.3s.1.9.3,1.3c.2.4.5.7.8.9s.7.3,1.1.3.8,0,1.1-.3.6-.5.8-.9c.2-.4.3-.8.3-1.3s-.1-.9-.3-1.3Z"/>
        <path d="M128.4,24.6v3.9c0,.3,0,.5.2.7s.4.2.7.2h.8v.9h-1c-.6,0-1.1-.1-1.4-.4-.3-.3-.5-.7-.5-1.4v-3.9h-.9v-.9h.9v-1.7h1.1v1.7h1.7v.9h-1.7Z"/>
        <path d="M137.4,27.4h-5.3c0,.6.3,1.2.7,1.5.4.4.9.5,1.5.5s.9-.1,1.2-.3c.3-.2.5-.5.7-.9h1.2c-.2.6-.5,1.1-1.1,1.5-.5.4-1.2.6-2,.6s-1.2-.1-1.7-.4-.9-.7-1.2-1.2c-.3-.5-.4-1.1-.4-1.8s.1-1.3.4-1.8c.3-.5.7-.9,1.1-1.2.5-.3,1.1-.4,1.7-.4s1.2.1,1.7.4c.5.3.9.6,1.1,1.1.3.5.4,1,.4,1.6s0,.4,0,.7ZM136.1,25.4c-.2-.3-.4-.5-.8-.7-.3-.2-.7-.2-1-.2-.6,0-1,.2-1.4.5-.4.4-.6.8-.7,1.5h4.2c0-.4,0-.8-.3-1.1Z"/>
        <path d="M139.9,30.1c-.4-.2-.7-.4-.9-.7-.2-.3-.4-.7-.4-1.1h1.1c0,.3.2.6.5.8.3.2.6.3,1.1.3s.7,0,1-.3c.2-.2.4-.4.4-.7s-.1-.5-.4-.6-.7-.3-1.2-.4c-.5-.1-.9-.3-1.2-.4-.3-.1-.6-.3-.8-.6-.2-.3-.3-.6-.3-1s0-.6.3-.9.5-.5.9-.7.8-.2,1.3-.2c.7,0,1.3.2,1.8.6s.7.9.7,1.5h-1.1c0-.3-.2-.6-.4-.8-.3-.2-.6-.3-1-.3s-.7,0-.9.3c-.2.2-.3.4-.3.7s0,.4.2.5c.1.1.3.3.5.3.2,0,.5.2.9.3.5.1.9.3,1.2.4s.6.3.8.6.3.6.3,1c0,.4-.1.7-.3,1-.2.3-.5.5-.8.7s-.8.2-1.3.2-1,0-1.4-.3Z"/>
      </g>
    </g>
  </g>
</svg>