<?xml version="1.0" encoding="UTF-8"?>
<svg xmlns="http://www.w3.org/2000/svg" version="1.1" xmlns:xlink="http://www.w3.org/1999/xlink" viewBox="0 0 168 50">
  <defs>
    <style>
      .cls-1 {
        fill: none;
      }

      .cls-2 {
        fill: #83e7ee;
      }

      .cls-3 {
        fill: #1a1a1c;
      }

      .cls-4 {
        clip-path: url(#clippath);
      }
    </style>
    <clipPath id="clippath">
      <rect class="cls-1" x="152" width="16" height="16"/>
    </clipPath>
  </defs>
  <!-- Generator: Adobe Illustrator 28.6.0, SVG Export Plug-In . SVG Version: 1.2.0 Build 709)  -->
  <g>
    <g id="Layer_1">
      <path class="cls-2" d="M20.5,9h121c11.3,0,20.5,9.2,20.5,20.5h0c0,11.3-9.2,20.5-20.5,20.5H20.5C9.2,50,0,40.8,0,29.5h0C0,18.2,9.2,9,20.5,9Z"/>
      <g class="cls-4">
        <path class="cls-3" d="M167.4,0l-15.1,5c-.4.1-.4.4,0,.5l7.2,2.9,3.6,7.2c.2.4.5.4.6,0l4.3-15.1c.1-.4-.1-.6-.5-.5Z"/>
      </g>
      <g>
        <path d="M36.6,27.2c.4-.7,1-1.3,1.7-1.8.7-.4,1.5-.6,2.4-.6s2,.3,2.7.8c.8.5,1.3,1.2,1.7,2.1h-1.5c-.3-.6-.6-1-1.1-1.3-.5-.3-1.1-.5-1.8-.5s-1.3.2-1.8.5-.9.8-1.3,1.3-.5,1.2-.5,2,.2,1.4.5,2,.7,1,1.3,1.3,1.1.5,1.8.5,1.3-.2,1.8-.5c.5-.3.9-.7,1.1-1.3h1.5c-.4.9-.9,1.6-1.7,2.1s-1.7.7-2.7.7-1.7-.2-2.4-.6c-.7-.4-1.3-1-1.7-1.7-.4-.7-.6-1.6-.6-2.5s.2-1.8.6-2.5Z"/>
        <path d="M48.5,34.2c-.6-.3-1-.8-1.3-1.4-.3-.6-.5-1.3-.5-2.1s.2-1.5.5-2c.3-.6.8-1,1.4-1.4s1.2-.5,1.9-.5,1.4.2,1.9.5,1,.8,1.4,1.4c.3.6.5,1.3.5,2s-.2,1.5-.5,2.1c-.3.6-.8,1-1.4,1.4s-1.2.5-2,.5-1.3-.2-1.9-.5ZM51.7,33.2c.4-.2.7-.5,1-.9.2-.4.4-.9.4-1.5s-.1-1.1-.4-1.5-.5-.7-.9-.9-.8-.3-1.3-.3-.9.1-1.3.3c-.4.2-.7.5-.9.9-.2.4-.3.9-.3,1.5s.1,1.1.3,1.6c.2.4.5.7.9.9.4.2.8.3,1.2.3s.9-.1,1.3-.3Z"/>
        <path d="M57,34.3c-.5-.2-.8-.5-1.1-.8-.3-.4-.4-.8-.4-1.2h1.3c0,.4.2.7.5.9s.7.4,1.2.4.9-.1,1.1-.3c.3-.2.4-.5.4-.8s-.1-.6-.4-.7c-.3-.2-.7-.3-1.4-.5-.6-.1-1-.3-1.4-.4s-.7-.4-.9-.7-.4-.7-.4-1.2.1-.7.3-1.1c.2-.3.6-.6,1-.8.4-.2.9-.3,1.4-.3.8,0,1.5.2,2,.6.5.4.8,1,.8,1.7h-1.3c0-.4-.2-.7-.5-.9-.3-.2-.7-.4-1.2-.4s-.8,0-1.1.3c-.3.2-.4.4-.4.8s0,.5.2.6c.2.2.4.3.6.4.2,0,.6.2,1,.3.5.1,1,.3,1.3.4.3.1.6.4.9.6.2.3.4.7.4,1.1,0,.4-.1.8-.3,1.1s-.6.6-1,.8c-.4.2-.9.3-1.4.3s-1.1,0-1.6-.3Z"/>
        <path d="M64.6,28v4.4c0,.4,0,.6.2.8s.4.2.8.2h.9v1.1h-1.1c-.7,0-1.2-.2-1.6-.5-.3-.3-.5-.8-.5-1.6v-4.4h-1v-1h1v-1.9h1.3v1.9h2v1h-2Z"/>
        <path d="M73,25.9v3.2h3.5v1h-3.5v3.3h3.9v1h-5.2v-9.6h5.2v1h-3.9Z"/>
        <path d="M81.9,28h-1.6v6.5h-1.3v-6.5h-1v-1h1v-.5c0-.8.2-1.5.7-1.8.4-.4,1.1-.6,2.1-.6v1c-.6,0-.9.1-1.2.3-.2.2-.3.6-.3,1.1v.5h1.6v1Z"/>
        <path d="M86.4,28h-1.6v6.5h-1.3v-6.5h-1v-1h1v-.5c0-.8.2-1.5.7-1.8.4-.4,1.1-.6,2.1-.6v1c-.6,0-.9.1-1.2.3-.2.2-.3.6-.3,1.1v.5h1.6v1Z"/>
        <path d="M94.7,31.2h-6c0,.7.3,1.3.8,1.7.5.4,1,.6,1.7.6s1-.1,1.4-.4.6-.6.8-1h1.3c-.2.7-.6,1.3-1.2,1.8-.6.5-1.4.7-2.3.7s-1.4-.2-1.9-.5c-.6-.3-1-.8-1.3-1.4-.3-.6-.5-1.3-.5-2.1s.2-1.5.5-2,.8-1,1.3-1.4c.6-.3,1.2-.5,1.9-.5s1.3.2,1.9.5c.5.3,1,.7,1.3,1.3.3.5.4,1.2.4,1.8s0,.5,0,.8ZM93.1,29c-.2-.3-.5-.6-.9-.8s-.8-.3-1.2-.3c-.6,0-1.2.2-1.6.6-.4.4-.7,1-.8,1.7h4.8c0-.5-.1-.9-.3-1.2Z"/>
        <path d="M96.4,28.7c.3-.6.7-1,1.3-1.4.6-.3,1.2-.5,1.9-.5s1.7.2,2.3.7c.6.4,1,1.1,1.2,1.9h-1.3c-.1-.5-.4-.8-.8-1.1-.4-.3-.8-.4-1.4-.4s-1.3.2-1.7.7c-.4.5-.7,1.2-.7,2.1s.2,1.6.7,2.1c.4.5,1,.7,1.7.7s1-.1,1.4-.4c.4-.3.6-.6.8-1.1h1.3c-.2.8-.6,1.4-1.2,1.9-.6.5-1.4.7-2.3.7s-1.4-.2-1.9-.5-1-.8-1.3-1.4-.5-1.3-.5-2.1.2-1.5.5-2Z"/>
        <path d="M106.3,28v4.4c0,.4,0,.6.2.8s.4.2.8.2h.9v1.1h-1.1c-.7,0-1.2-.2-1.6-.5-.3-.3-.5-.8-.5-1.6v-4.4h-1v-1h1v-1.9h1.3v1.9h2v1h-2Z"/>
        <path d="M109.8,25.5c-.2-.2-.2-.4-.2-.6s0-.4.2-.6.4-.2.6-.2.4,0,.6.2c.2.2.2.4.2.6s0,.4-.2.6c-.2.2-.4.2-.6.2s-.4,0-.6-.2ZM111,27v7.5h-1.3v-7.5h1.3Z"/>
        <path d="M115.9,33.4l2.3-6.4h1.3l-3,7.5h-1.5l-3-7.5h1.3l2.4,6.4Z"/>
        <path d="M127.7,31.2h-6c0,.7.3,1.3.8,1.7.5.4,1,.6,1.7.6s1-.1,1.4-.4.6-.6.8-1h1.3c-.2.7-.6,1.3-1.2,1.8-.6.5-1.4.7-2.3.7s-1.4-.2-1.9-.5c-.6-.3-1-.8-1.3-1.4-.3-.6-.5-1.3-.5-2.1s.2-1.5.5-2,.8-1,1.3-1.4c.6-.3,1.2-.5,1.9-.5s1.3.2,1.9.5c.5.3,1,.7,1.3,1.3.3.5.4,1.2.4,1.8s0,.5,0,.8ZM126.1,29c-.2-.3-.5-.6-.9-.8s-.8-.3-1.2-.3c-.6,0-1.2.2-1.6.6-.4.4-.7,1-.8,1.7h4.8c0-.5-.1-.9-.3-1.2Z"/>
      </g>
    </g>
  </g>
</svg>