<?xml version="1.0" encoding="UTF-8"?>
<svg xmlns="http://www.w3.org/2000/svg" version="1.1" xmlns:xlink="http://www.w3.org/1999/xlink" viewBox="0 0 154.6 47">
  <defs>
    <style>
      .cls-1 {
        fill: none;
      }

      .cls-2 {
        fill: #1a1a1c;
      }

      .cls-3 {
        fill: #f7a1f7;
      }

      .cls-4 {
        clip-path: url(#clippath);
      }
    </style>
    <clipPath id="clippath">
      <rect class="cls-1" width="16" height="16"/>
    </clipPath>
  </defs>
  <!-- Generator: Adobe Illustrator 28.6.0, SVG Export Plug-In . SVG Version: 1.2.0 Build 709)  -->
  <g>
    <g id="Layer_1">
      <path class="cls-3" d="M33.6,6h96c13.6,0,24.6,9.2,24.6,20.5h0c0,11.3-11,20.5-24.6,20.5H33.6c-13.6,0-24.6-9.2-24.6-20.5h0c0-11.3,11-20.5,24.6-20.5Z"/>
      <g class="cls-4">
        <path class="cls-2" d="M.6,0l15.1,5c.4.1.4.4,0,.5l-7.2,2.9-3.6,7.2c-.2.4-.5.4-.6,0L0,.5C0,.1.2,0,.6,0Z"/>
      </g>
      <g>
        <path d="M34.9,31.6l-1.7-1.7c-.4.1-.8.2-1.2.2-.8,0-1.5-.2-2.1-.5-.6-.4-1.1-.9-1.5-1.5-.4-.7-.6-1.4-.6-2.2s.2-1.5.6-2.2c.4-.7.9-1.2,1.5-1.5.6-.4,1.3-.5,2.1-.5s1.5.2,2.1.5c.6.4,1.1.9,1.5,1.5.4.6.6,1.4.6,2.2s-.2,1.5-.5,2.2c-.4.6-.8,1.1-1.5,1.5l2.1,2.1h-1.4ZM29.3,27.6c.3.5.6.9,1.1,1.2.5.3,1,.4,1.6.4s1.1-.1,1.6-.4c.5-.3.8-.7,1.1-1.2.3-.5.4-1.1.4-1.8s-.1-1.3-.4-1.8c-.3-.5-.6-.9-1.1-1.2s-1-.4-1.6-.4-1.1.1-1.6.4-.8.7-1.1,1.2c-.3.5-.4,1.1-.4,1.8s.1,1.2.4,1.8Z"/>
        <path d="M43.5,23.5v6.6h-1.1v-1c-.2.3-.5.6-.9.8-.4.2-.8.3-1.2.3s-1-.1-1.4-.3c-.4-.2-.7-.5-1-1-.2-.4-.4-.9-.4-1.5v-3.9h1.1v3.7c0,.6.2,1.1.5,1.5s.8.5,1.3.5,1-.2,1.4-.5c.3-.4.5-.9.5-1.6v-3.6h1.1Z"/>
        <path d="M45.4,22.2c-.1-.1-.2-.3-.2-.5s0-.4.2-.5.3-.2.5-.2.4,0,.5.2.2.3.2.5,0,.4-.2.5-.3.2-.5.2-.4,0-.5-.2ZM46.4,23.5v6.6h-1.1v-6.6h1.1Z"/>
        <path d="M48.3,25c.3-.5.7-.9,1.1-1.2.5-.3,1-.4,1.7-.4s1.5.2,2,.6c.5.4.9.9,1,1.6h-1.2c-.1-.4-.3-.7-.7-.9-.3-.2-.7-.3-1.2-.3s-1.1.2-1.5.6c-.4.4-.6,1-.6,1.8s.2,1.4.6,1.8c.4.4.9.6,1.5.6s.9-.1,1.2-.3c.3-.2.5-.5.7-1h1.2c-.2.7-.5,1.2-1.1,1.6-.5.4-1.2.6-2,.6s-1.2-.1-1.7-.4c-.5-.3-.9-.7-1.1-1.2-.3-.5-.4-1.1-.4-1.8s.1-1.3.4-1.8Z"/>
        <path d="M59.2,30.1l-2.6-2.9v2.9h-1.1v-8.9h1.1v5.2l2.5-2.9h1.5l-3.1,3.3,3.1,3.3h-1.5Z"/>
        <path d="M66.6,29.6c-.6-.4-1.1-.9-1.5-1.5-.4-.7-.6-1.4-.6-2.2s.2-1.5.6-2.2c.4-.7.9-1.2,1.5-1.5.6-.4,1.3-.5,2.1-.5s1.5.2,2.1.5c.6.4,1.1.9,1.5,1.5.4.6.6,1.4.6,2.2s-.2,1.6-.6,2.2c-.4.6-.9,1.2-1.5,1.5-.6.4-1.4.5-2.1.5s-1.5-.2-2.1-.5ZM70.3,28.8c.5-.3.8-.7,1.1-1.2.3-.5.4-1.1.4-1.8s-.1-1.3-.4-1.8c-.3-.5-.6-.9-1.1-1.2s-1-.4-1.6-.4-1.1.1-1.6.4-.8.7-1.1,1.2c-.3.5-.4,1.1-.4,1.8s.1,1.2.4,1.8c.3.5.6.9,1.1,1.2.5.3,1,.4,1.6.4s1.1-.1,1.6-.4Z"/>
        <path d="M79.5,24.1c.5.5.7,1.2.7,2.1v3.9h-1.1v-3.7c0-.7-.2-1.2-.5-1.5-.3-.3-.8-.5-1.3-.5s-1,.2-1.4.5c-.3.4-.5.9-.5,1.6v3.6h-1.1v-6.6h1.1v.9c.2-.3.5-.6.9-.8.4-.2.8-.3,1.2-.3.8,0,1.4.2,1.9.7Z"/>
        <path d="M84.1,23.7c.4-.2.9-.4,1.5-.4s1.1.1,1.6.4c.5.3.8.7,1.1,1.2.3.5.4,1.1.4,1.8s-.1,1.3-.4,1.8c-.3.5-.6.9-1.1,1.2-.5.3-1,.4-1.6.4s-1.1-.1-1.5-.4c-.4-.2-.8-.6-1-.9v1.2h-1.1v-8.9h1.1v3.5c.2-.4.6-.7,1-1ZM87.3,25.4c-.2-.4-.5-.6-.8-.8-.3-.2-.7-.3-1.1-.3s-.8,0-1.1.3c-.3.2-.6.5-.8.9s-.3.8-.3,1.3.1.9.3,1.3.5.7.8.9c.3.2.7.3,1.1.3s.8,0,1.1-.3c.3-.2.6-.5.8-.9s.3-.8.3-1.3-.1-.9-.3-1.3Z"/>
        <path d="M91.4,29.7c-.5-.3-.9-.7-1.2-1.2-.3-.5-.4-1.1-.4-1.8s.1-1.3.4-1.8.7-.9,1.2-1.2c.5-.3,1.1-.4,1.7-.4s1.2.1,1.7.4c.5.3.9.7,1.2,1.2s.4,1.1.4,1.8-.2,1.3-.5,1.8c-.3.5-.7.9-1.2,1.2-.5.3-1.1.4-1.7.4s-1.2-.1-1.7-.4ZM94.1,28.9c.3-.2.6-.5.8-.8.2-.4.3-.8.3-1.3s-.1-1-.3-1.3c-.2-.4-.5-.6-.8-.8-.3-.2-.7-.3-1.1-.3s-.8,0-1.1.3c-.3.2-.6.5-.8.8-.2.4-.3.8-.3,1.3s0,1,.3,1.4c.2.4.5.6.8.8s.7.3,1.1.3.8,0,1.1-.3Z"/>
        <path d="M97.8,25c.3-.5.6-.9,1.1-1.2.5-.3,1-.4,1.6-.4s1.1.1,1.5.4c.4.2.7.6.9.9v-1.2h1.1v6.6h-1.1v-1.2c-.2.4-.5.7-1,1-.4.3-.9.4-1.5.4s-1.1-.1-1.6-.4-.8-.7-1.1-1.2c-.3-.5-.4-1.1-.4-1.8s.1-1.3.4-1.8ZM102.7,25.5c-.2-.4-.5-.7-.8-.8-.3-.2-.7-.3-1.1-.3s-.8,0-1.1.3c-.3.2-.6.5-.8.8-.2.4-.3.8-.3,1.3s.1.9.3,1.3c.2.4.5.7.8.9.3.2.7.3,1.1.3s.8,0,1.1-.3c.3-.2.6-.5.8-.9.2-.4.3-.8.3-1.3s-.1-.9-.3-1.3Z"/>
        <path d="M107.9,23.7c.4-.2.8-.3,1.3-.3v1.1h-.3c-1.2,0-1.8.7-1.8,2v3.6h-1.1v-6.6h1.1v1.1c.2-.4.5-.7.8-.9Z"/>
        <path d="M110.4,25c.3-.5.6-.9,1.1-1.2.5-.3,1-.4,1.6-.4s1,.1,1.4.4c.4.2.8.5,1,.9v-3.5h1.1v8.9h-1.1v-1.2c-.2.4-.5.7-1,1-.4.3-.9.4-1.5.4s-1.1-.1-1.6-.4-.8-.7-1.1-1.2c-.3-.5-.4-1.1-.4-1.8s.1-1.3.4-1.8ZM115.3,25.5c-.2-.4-.5-.7-.8-.8-.3-.2-.7-.3-1.1-.3s-.8,0-1.1.3c-.3.2-.6.5-.8.8-.2.4-.3.8-.3,1.3s.1.9.3,1.3c.2.4.5.7.8.9.3.2.7.3,1.1.3s.8,0,1.1-.3c.3-.2.6-.5.8-.9.2-.4.3-.8.3-1.3s-.1-.9-.3-1.3Z"/>
        <path d="M118.6,22.2c-.1-.1-.2-.3-.2-.5s0-.4.2-.5.3-.2.5-.2.4,0,.5.2.2.3.2.5,0,.4-.2.5-.3.2-.5.2-.4,0-.5-.2ZM119.6,23.5v6.6h-1.1v-6.6h1.1Z"/>
        <path d="M126.6,24.1c.5.5.7,1.2.7,2.1v3.9h-1.1v-3.7c0-.7-.2-1.2-.5-1.5-.3-.3-.8-.5-1.3-.5s-1,.2-1.4.5c-.3.4-.5.9-.5,1.6v3.6h-1.1v-6.6h1.1v.9c.2-.3.5-.6.9-.8.4-.2.8-.3,1.2-.3.8,0,1.4.2,1.9.7Z"/>
        <path d="M133.4,23.7c.4.2.7.6,1,.9v-1.2h1.1v6.7c0,.6-.1,1.1-.4,1.6s-.6.8-1.1,1.1c-.5.3-1,.4-1.7.4s-1.6-.2-2.2-.6-.9-1-1-1.7h1.1c.1.4.4.7.7,1,.4.2.8.4,1.4.4s1.1-.2,1.5-.6.6-.9.6-1.6v-1.4c-.2.4-.5.7-1,1-.4.3-.9.4-1.5.4s-1.1-.1-1.6-.4-.8-.7-1.1-1.2c-.3-.5-.4-1.1-.4-1.8s.1-1.3.4-1.8c.3-.5.6-.9,1.1-1.2.5-.3,1-.4,1.6-.4s1.1.1,1.5.4ZM134,25.5c-.2-.4-.5-.7-.8-.8-.3-.2-.7-.3-1.1-.3s-.8,0-1.1.3c-.3.2-.6.5-.8.8-.2.4-.3.8-.3,1.3s.1.9.3,1.3c.2.4.5.7.8.9.3.2.7.3,1.1.3s.8,0,1.1-.3c.3-.2.6-.5.8-.9.2-.4.3-.8.3-1.3s-.1-.9-.3-1.3Z"/>
      </g>
    </g>
  </g>
</svg>