<?xml version="1.0" encoding="UTF-8"?>
<svg xmlns="http://www.w3.org/2000/svg" version="1.1" viewBox="0 0 348.3 174">
  <defs>
    <style>
      .cls-1 {
        isolation: isolate;
      }

      .cls-2 {
        fill: #15d9e8;
      }

      .cls-3 {
        mix-blend-mode: multiply;
      }
    </style>
  </defs>
  <!-- Generator: Adobe Illustrator 28.6.0, SVG Export Plug-In . SVG Version: 1.2.0 Build 709)  -->
  <g class="cls-1">
    <g id="Layer_1">
      <g class="cls-3">
        <path class="cls-2" d="M196,30h32.2c-.8-.3-3-.9-5.2-1.6.2-.6.4-1.2.5-1.7,21.3,4.3,42.8,8.2,63.9,12.9,10.3,2.3,20.2,5.8,29.9,9.6,18.2,7.1,25.1,20.8,28.7,36.2.7,2.8,1,5.7,1.4,8.5,3.9,23.4-10.2,35.1-37.6,49.5-1.7.9-4,1.2-5.5,2.2-24.8,16.6-54.7,21-84.6,25.1-50.5,6.9-100,3.2-147.9-12.3-14.2-4.6-28.1-10-41.3-16.4C10.8,132.3,2,116.3.3,97.5-2.8,62.6,16.1,35.3,53.2,19.4,77.8,8.9,104.1,3.9,131.4,2.5,157.7,1.1,184.2-.5,210.6.1c28,.6,55.8,4.5,81.7,14.4,3.6,1.4,6.4,4.3,8.6,7.4-16.9-2.1-33.8-4.4-50.8-6.3-8.5-1-17.1-1.6-25.7-1.9-41.5-1.9-82.5.8-122.6,10.3-13.5,3.2-26.8,7.5-39.4,12.7-31.2,12.9-48.1,39.5-44.5,67.9,1.2,9.2,6.1,16.3,15.8,21,46.8,22.6,97.1,32.2,150.9,29,27.1-1.6,54-4.1,79.7-12.1,19.3-6.1,37.7-13.6,53.3-25.2,17-12.7,20.4-27.2,9.9-44.3-2-3.2-5.7-6-9.3-8.1-13.9-8.4-31-11-46.1-16.9-23.1-9-48-10.1-72-14.9-1.4-.3-2.7-.9-4.1-1.4,0-.5.2-1.1.2-1.6Z"/>
      </g>
    </g>
  </g>
</svg>