<?xml version="1.0" encoding="UTF-8"?>
<svg xmlns="http://www.w3.org/2000/svg" version="1.1" viewBox="0 0 60 60">
  <defs>
    <style>
      .cls-1 {
        fill: #5355ce;
      }
    </style>
  </defs>
  <!-- Generator: Adobe Illustrator 28.6.0, SVG Export Plug-In . SVG Version: 1.2.0 Build 709)  -->
  <g>
    <g id="Layer_1">
      <g>
        <path class="cls-1" d="M20.3,59.5c-1-.4-1.3-1.2-1.3-2.2,0-1.8,0-3.6.7-5.3,1.8-4.3,5-6.6,9.7-7.2-1.9-.3-3.4-1-4.5-2.6-1.1-1.5-1.4-3.2-1.1-5,.6-3.2,3.3-5.3,6.5-5.2,3.1.1,5.8,2.5,6.1,5.5.4,3.6-1.5,6.2-5.6,7.3,3,.3,5.6,1.5,7.5,3.8,1.7,1.9,2.6,4.2,2.7,6.8,0,.6,0,1.3,0,1.9,0,1.1-.3,1.8-1.3,2.2h-19.4Z"/>
        <path class="cls-1" d="M.5,23.5c.1-.7.2-1.4.4-2.1,1.2-4.6,5-7.8,9.8-8.1,6.3-.4,11.2,3.9,11.7,10.2,0,.9,0,1.7,0,2.6,0,1.1-.7,1.8-1.8,1.8-6.1,0-12.2,0-18.3,0-.9,0-1.5-.5-1.9-1.3,0-1.1,0-2.2,0-3.2Z"/>
        <path class="cls-1" d="M49.4,13.3c5.8.5,10.1,5.2,10.1,11,0,.6,0,1.2,0,1.8,0,1.1-.7,1.8-1.8,1.8-6.1,0-12.3,0-18.4,0-1,0-1.7-.6-1.8-1.5-.2-2.9,0-5.7,1.8-8.2,2-3,4.8-4.6,8.4-5-.7-.2-1.4-.4-2.1-.7-.7-.4-1.3-.8-1.8-1.4-.5-.6-.9-1.3-1.2-2-.3-.7-.4-1.5-.4-2.2,0-.8.1-1.5.3-2.3,1.1-3.4,4.2-4.5,6.6-4.3,3,.3,5.4,2.6,5.7,5.6.2,1.8-.2,3.4-1.3,4.8-1.1,1.4-2.5,2.2-4.2,2.5Z"/>
        <path class="cls-1" d="M11.5,13.3c-3.6,0-6.4-2.8-6.4-6.5,0-3.6,2.8-6.4,6.5-6.4,3.5,0,6.4,2.9,6.3,6.5,0,3.5-2.9,6.4-6.4,6.4Z"/>
        <path class="cls-1" d="M8,31.5h3.4c0,6.2,2.5,11.3,7.4,15.2-.6,1-1.2,1.9-1.8,2.9-4.5-1.9-9.7-12.3-9-18Z"/>
        <path class="cls-1" d="M43.1,49.6c-.6-1-1.2-1.9-1.8-2.9,2.3-1.8,4.2-4,5.5-6.7,1.3-2.7,1.9-5.5,1.9-8.5h3.4c1,5.4-3.7,14.7-8.9,18.1Z"/>
        <path class="cls-1" d="M19.7,12.3c5.6-3.4,14.8-3.5,20.6,0-.6.5-1.4,1-1.9,1.7-.6.7-1.1.7-1.9.4-4.6-1.7-9.2-1.6-13.7.2-.3.1-.5.1-.8-.1-.8-.7-1.5-1.4-2.3-2.2Z"/>
      </g>
    </g>
  </g>
</svg>