<?xml version="1.0" encoding="UTF-8"?>
<svg xmlns="http://www.w3.org/2000/svg" version="1.1" viewBox="0 0 60 60">
  <defs>
    <style>
      .cls-1 {
        fill: #5355ce;
      }
    </style>
  </defs>
  <!-- Generator: Adobe Illustrator 28.6.0, SVG Export Plug-In . SVG Version: 1.2.0 Build 709)  -->
  <g>
    <g id="Layer_1">
      <path class="cls-1" d="M49.9,59.8c0-.2,0-.4,0-.6,0-13.5,0-27,0-40.4v-.7h9.5c0,.2,0,.5,0,.7,0,13.5,0,26.9,0,40.4,0,.2,0,.5,0,.7h-9.5Z"/>
      <path class="cls-1" d="M55,.2c.4.1.8.3,1.3.4,2.4,1.1,3.5,3.8,2.5,6.2-1,2.4-3.7,3.6-6.1,2.7-.4-.1-.6,0-.9.2-2.9,2.4-5.7,4.9-8.6,7.3-.3.2-.4.4-.3.8.7,2.8-1.2,5.5-4.1,5.9-2.7.4-5.2-1.7-5.4-4.5,0-.3-.1-.5-.4-.6-2.4-1-4.8-2-7.3-2.9-.2,0-.5,0-.6.1-1.8,1.5-3.9,1.6-5.9.4-.2,0-.5-.1-.6,0-2.6,1.5-5.1,3-7.7,4.5-.1,0-.3.4-.3.5.2,2.6-1.6,4.8-4.1,5.2-2.5.4-4.8-1.3-5.4-3.8-.4-1.8.3-3.8,1.9-4.9,1.6-1.1,3.7-1.2,5.4-.2.4.2.6.2,1,0,2.5-1.5,4.9-2.9,7.4-4.4.3-.2.4-.4.4-.7-.1-2.8,1.9-5,4.6-5.2,2.6-.1,4.8,1.9,5,4.5,0,.2.2.4.4.5,2.4,1,4.8,2,7.2,3,.3.1.5.1.7-.1,1.5-1.3,3.3-1.6,5.2-.8.2,0,.5,0,.6,0,2.9-2.4,5.8-4.9,8.7-7.4.1-.1.2-.4.2-.6-.7-2.9.8-5.5,3.7-6.2,0,0,.1,0,.2,0,.5,0,.9,0,1.4,0Z"/>
      <path class="cls-1" d="M17,59.8c0-.3,0-.5,0-.8,0-11.5,0-23,0-34.4q0-.8.8-.8c2.7,0,5.3,0,8,0h.7c0,.3,0,.5,0,.7,0,11.6,0,23.2,0,34.7,0,.2,0,.4,0,.6h-9.5Z"/>
      <path class="cls-1" d="M33.5,59.8c0-.2,0-.3,0-.5,0-9.1,0-18.2,0-27.3,0-.2,0-.3,0-.5h9.5v.7c0,8.9,0,17.9,0,26.8,0,.3,0,.5,0,.8h-9.5Z"/>
      <path class="cls-1" d="M.6,59.8c0-.3,0-.5,0-.8,0-7,0-13.9,0-20.9,0-.2,0-.5,0-.7h9.5c0,.1,0,.3,0,.4,0,7.2,0,14.4,0,21.6,0,0,0,.2,0,.3H.6Z"/>
    </g>
  </g>
</svg>