<?xml version="1.0" encoding="UTF-8"?>
<svg xmlns="http://www.w3.org/2000/svg" version="1.1" viewBox="0 0 3000 3000">
  <defs>
    <style>
      .cls-1 {
        fill: #1c0311;
        stroke-width: 2.3px;
      }

      .cls-1, .cls-2, .cls-3, .cls-4, .cls-5, .cls-6, .cls-7, .cls-8, .cls-9, .cls-10 {
        stroke-linecap: round;
        stroke-linejoin: round;
      }

      .cls-1, .cls-2, .cls-3, .cls-4, .cls-5, .cls-6, .cls-8, .cls-9, .cls-10 {
        stroke: #1a1a1a;
      }

      .cls-2 {
        stroke-dasharray: 27.8 27.8;
      }

      .cls-2, .cls-3, .cls-4, .cls-5, .cls-8, .cls-9, .cls-10 {
        stroke-width: 4.5px;
      }

      .cls-2, .cls-3, .cls-5, .cls-6, .cls-7, .cls-8, .cls-9, .cls-11 {
        fill: none;
      }

      .cls-3 {
        stroke-dasharray: 27.8 27.8;
      }

      .cls-4 {
        fill: #fff;
      }

      .cls-5 {
        stroke-dasharray: 25.7 25.7;
      }

      .cls-6, .cls-7 {
        stroke-width: 6.8px;
      }

      .cls-7 {
        stroke: #fff;
      }

      .cls-9 {
        stroke-dasharray: 27.5 27.5;
      }

      .cls-12 {
        fill: #1a1a1a;
      }

      .cls-11 {
        display: none;
      }

      .cls-10 {
        fill: #5355ce;
      }
    </style>
  </defs>
  <!-- Generator: Adobe Illustrator 28.6.0, SVG Export Plug-In . SVG Version: 1.2.0 Build 709)  -->
  <g>
    <g id="Layer_1">
      <rect class="cls-11" width="3000" height="3000"/>
      <g>
        <g>
          <rect class="cls-4" x="525.1" y="447.3" width="195" height="195"/>
          <line class="cls-4" x1="622.6" y1="480.7" x2="622.6" y2="609.1"/>
          <line class="cls-4" x1="558.6" y1="544.9" x2="684.9" y2="544.9"/>
        </g>
        <path class="cls-8" d="M2248.1,1134.3c39.9,24.1,86.4,33.7,131.8,43.6,45.4,9.9,91.8,21.1,130.1,47.7,38.3,26.6,67.1,72.2,60.8,118.7-6.9,51.4-52.6,88-97.7,112.8-41.5,22.8-86.3,41.1-121.3,73-35,32-58.7,82.9-42.6,127.7,11,30.5,37.5,52,62.9,71.8,25.4,19.8,52,41.2,63.2,71.6,11.1,30.4-1.2,71.9-32.3,79.7"/>
        <path class="cls-8" d="M2247,1062.9c39.4,53.7,106.7,79.4,172.2,89,65.5,9.6,132.4,6,198,15.2,65.6,9.2,133.1,33.8,173.6,86.6,31.4,41,42.1,101.7,14,145.1-17.3,26.7-46.1,43.3-74.6,57-28.5,13.8-58.4,26.1-81.8,47.6-23.3,21.5-38.9,55.2-29.4,85.6,7.3,23.4,27.3,39.9,42.9,58.6,53.6,64.3,54,167.7.9,232.5"/>
        <ellipse class="cls-4" cx="1839.7" cy="2710" rx="534.4" ry="140.9"/>
        <g>
          <path class="cls-1" d="M2268.1,235.2c0-47.6-38.6-86.1-86.1-86.1H992.9c-47.6,0-86.1,38.6-86.1,86.1v9.9h1361.3v-9.9Z"/>
          <path class="cls-4" d="M906.8,245.1v930.1c0,47.6,38.6,86.1,86.1,86.1h1189.1c47.6,0,86.1-38.6,86.1-86.1V245.1H906.8Z"/>
          <g>
            <polyline class="cls-8" points="1527 678.8 1527 692.3 1513.5 692.3"/>
            <line class="cls-3" x1="1485.7" y1="692.3" x2="1054.3" y2="692.3"/>
            <polyline class="cls-8" points="1040.4 692.3 1026.8 692.3 1026.8 678.8"/>
            <line class="cls-5" x1="1026.8" y1="653.1" x2="1026.8" y2="357.6"/>
            <polyline class="cls-8" points="1026.8 344.8 1026.8 331.3 1040.4 331.3"/>
            <line class="cls-3" x1="1068.2" y1="331.3" x2="1499.6" y2="331.3"/>
            <polyline class="cls-8" points="1513.5 331.3 1527 331.3 1527 344.8"/>
            <line class="cls-5" x1="1527" y1="370.5" x2="1527" y2="665.9"/>
          </g>
          <g>
            <polyline class="cls-8" points="2148 1149.6 2148 1163.1 2134.5 1163.1"/>
            <line class="cls-3" x1="2106.7" y1="1163.1" x2="1675.3" y2="1163.1"/>
            <polyline class="cls-8" points="1661.4 1163.1 1647.9 1163.1 1647.9 1149.6"/>
            <line class="cls-2" x1="1647.9" y1="1121.9" x2="1647.9" y2="358.7"/>
            <polyline class="cls-8" points="1647.9 344.8 1647.9 331.3 1661.4 331.3"/>
            <line class="cls-3" x1="1689.2" y1="331.3" x2="2120.6" y2="331.3"/>
            <polyline class="cls-8" points="2134.5 331.3 2148 331.3 2148 344.8"/>
            <line class="cls-2" x1="2148" y1="372.5" x2="2148" y2="1135.7"/>
          </g>
          <rect class="cls-4" x="1672.2" y="349.6" width="451.5" height="795.1"/>
          <g>
            <polyline class="cls-8" points="1527 1149.6 1527 1163.1 1513.5 1163.1"/>
            <line class="cls-3" x1="1485.7" y1="1163.1" x2="1054.3" y2="1163.1"/>
            <polyline class="cls-8" points="1040.4 1163.1 1026.8 1163.1 1026.8 1149.6"/>
            <line class="cls-9" x1="1026.8" y1="1122.1" x2="1026.8" y2="805.7"/>
            <polyline class="cls-8" points="1026.8 791.9 1026.8 778.4 1040.4 778.4"/>
            <line class="cls-3" x1="1068.2" y1="778.4" x2="1499.6" y2="778.4"/>
            <polyline class="cls-8" points="1513.5 778.4 1527 778.4 1527 791.9"/>
            <line class="cls-9" x1="1527" y1="819.4" x2="1527" y2="1135.9"/>
          </g>
          <rect class="cls-4" x="1051.5" y="797.4" width="450.8" height="346.8"/>
          <path class="cls-4" d="M1387.1,674.6c-64,29.8-121.5,64-121.5,64,0,0-57.4-34.2-121.4-64-64-29.8-62.9-60.2-62.9-60.2v-244.6c0-64,96-81.7,96-81.7h176.7s96.1,17.7,96.1,81.7v244.6s1.1,30.4-62.9,60.2Z"/>
          <path class="cls-4" d="M1265.6,693.1c-22.8-12.9-62.1-34.4-104.8-54.2-29-13.5-37.9-24.9-40.1-28.6v-240.3c0-23.5,44.4-38.3,60.7-42.2h168.3c16.1,3.8,60.7,18.7,60.7,42.2v240.3c-2.2,3.7-11.1,15.1-40.1,28.6-42.6,19.8-82,41.4-104.8,54.2Z"/>
          <path class="cls-1" d="M1333.5,476.2v-24.6c0-20.9-8.5-39.9-22.2-53.6-13.7-13.7-32.7-22.2-53.6-22.2-20.9,0-39.9,8.5-53.6,22.2-13.7,13.7-22.2,32.7-22.2,53.6v24.6c0,7.7,6.2,13.9,13.9,13.9s13.9-6.2,13.9-13.9v-24.6c0-13.3,5.3-25.2,14-33.9,8.7-8.7,20.6-14,33.9-14,13.3,0,25.2,5.3,33.9,14,8.7,8.7,14,20.6,14,33.9v24.6c0,7.7,6.2,13.9,13.9,13.9s13.9-6.2,13.9-13.9h0Z"/>
          <circle class="cls-4" cx="1036" cy="192.7" r="26.5"/>
          <circle class="cls-4" cx="1135.3" cy="192.7" r="26.5"/>
          <circle class="cls-4" cx="1234.7" cy="192.7" r="26.5"/>
        </g>
        <path class="cls-6" d="M506.2,2544.5h1846.3c243.3-60.2,263.8-281.1,181.5-421.6-70.6-120.4-198.1-186.3-393.3-118.4-169.5-197.4-452.5-287.8-704.5-229.2-265.5,61.8-382.3,262.5-400.6,295.2-49.6-54.6-211.5-222.2-345.3-194.2-147.6,30.9-241.4,295.7-184.2,668.2Z"/>
        <path class="cls-4" d="M685.2,2545h1579.1c63.7-99.3,58.9-218.3-4.8-288.9-50.6-56-122-63.5-144.4-65-17.1-47.7-59.4-140.8-154.1-195-149.2-85.4-369.4-40.2-529.6,125.2-21.7-79.2-102.8-122.3-170.9-101.1-56.8,17.7-96.9,77.7-91.5,144.4-146.2-97.4-334.2-73.9-435.7,40.9-78.1,88.4-96.3,221.1-48.1,339.4Z"/>
        <line class="cls-6" x1="324.2" y1="2545" x2="2534" y2="2545"/>
        <path class="cls-1" d="M1860.3,2587.2c-5.8-12.3-11.6-21.7-11.6-21.7l-81.8,23.3s-5.8,5.4-14.7,14c31.3,18.1,76.4,5.8,108.1-15.6Z"/>
        <path class="cls-4" d="M1752.2,2602.8c-29.7,29.1-93.3,95.3-82.8,120,13.6,32.1,61.8,11.6,95.5-10.4,33.7-22.1,109.9-65.4,107.5-88.7-1.2-11.2-6.7-25.1-12.1-36.5-31.7,21.4-76.8,33.6-108.1,15.6Z"/>
        <path class="cls-1" d="M2014.6,2595.6c-1.7-13.3-3.2-22.2-3.2-22.2l-75.4,14.4s-6.3,7.6-13.3,18.8c27.1,21.1,67.2,9.6,91.9-11Z"/>
        <path class="cls-4" d="M2014.6,2595.6c-24.8,20.6-64.8,32.1-91.9,11-5.7,9.2-12,20.8-15.6,32.6-8,26.2-45.5,141.8-10.7,150.9,34.8,9.1,81.3-21.4,93.6-62.6,12.3-41.2,31.6-48.7,29.4-83.5-1.1-17.4-3.1-35.1-4.8-48.4Z"/>
        <path class="cls-4" d="M1639.6,1493.1s-186.4,305.7-181.6,433.3c4.8,127.6,273.6,658.8,300.9,671.6,27.3,12.8,80.2-8.8,97.9-24.9,17.7-16-12-97.1-24.9-136.4-12.8-39.3-67.1-273.1-149.5-403.6,70.6-100.6,149.8-233.2,161.6-330.6,11.8-97.4,21.8-219.9,21.8-219.9"/>
        <path class="cls-4" d="M1808.6,1658.7s60.6,371.2,81.7,468.6c7.1,122,20,440.8,29.6,459,9.6,18.2,89.9,34.2,102.7-22.5,12.8-56.7,44.9-201.1,35.3-341.3-5.3-116.6,40.7-233.2,51.4-278.2s79.2-338.1-15-487.9l-297.4,4.3"/>
        <path class="cls-1" d="M1769.3,1541.2c70.6-3.3,108.3,9,144.4,5.3,36.1-3.7,177-15.3,196.7-59.6-12.4-37.9-465.5-4.3-465.5-4.3l-21.7,38.1s11.3,37.3,146.1,20.5Z"/>
        <path class="cls-10" d="M1643.9,1281s5.3,82.4-11.8,120.9c-17.1,38.5-35.3,126.2,36.4,124.1,71.7-2.1,143.8-11.6,186.3,0,42.5,11.6,225.1-7.3,257.2-65,32.1-57.8,58.6-244.7,50.6-284.9-8-40.1-43.9-231.1-113-247.1-69.1-16-321.1,16-321.1,16"/>
        <path class="cls-10" d="M1831.9,1268.4c238.3,68.2,362.7-56.9,378.8-194.9,16-138-105.1-195.8-147.6-219.9-42.5-24.1-86.7-36.1-158.1-34.5-71.4,1.6-136.9,10.4-136.9,10.4,0,0-236.4,89.9-248.2,309.2-11.8,219.3,251.4,199,379.8,83.5,76-57.8,72.8-52.8,77.6-72.1,4.8-19.3,16.9-115.5-22.5-91.9-39.3,23.7-108.3,117.2-228.7,107.5l-53-10.4s-11.6,2.4-8-4.4c3.6-6.8,24.3-18.7,27.1-31.1,2.8-12.4,4.4-34.3-9.8-35.7,6.6-7.6,22.7-3.6,41.1,8.2,18.5,11.8,98.1,38.6,125.1,43.5"/>
        <path class="cls-4" d="M1887.8,764.8c-134.3-.5-57.8-170.6-57.8-170.6l120.4-3.7,30,87.2-27.8,49.7s-17.7,20.9-13.4,53c4.3,32.1,41.2,71.1,41.2,71.1,0,0-73.8,42.3-163.7-2.7,13.4-31,27.8-60.4,30.8-91.2"/>
        <path class="cls-1" d="M1845.5,770.9s34.3.5,42.3-6.1c-29.5-1.5-40.7-5.7-40.7-5.7l-1.6,11.8Z"/>
        <path class="cls-1" d="M1789,526.6c0,1.2-38.1,95.9,73.4,97.1,37.7,1.2,45.7-4.8,53.8-14,8-9.2,25.3,10.4,12.4,24.5,14,4,28.5-.8,28.1,26.5-.4,27.3-21.7,30.1-30.1,32.5,9.6,28.9,22.1,42.1,32.1,42.1,21.7-4.4,26.9-4,34.5-55.4,7.6-51.4,19.7-81.4-12.8-113.1-29.3-28.9-53.3-36.9-86-28.1-32.7,8.8-59.2,17.7-96.1-16.9-8-6.4-9.2,4.8-9.2,4.8Z"/>
        <path class="cls-10" d="M1977.1,1150.1c89.9-30.9,70.6-155.3,70.6-155.3"/>
        <path class="cls-4" d="M1684.5,1095.1s-40.9-19-78.1,2.4c-37.2,21.4-35.8,57.8-23.3,72.5,12.6,14.7,41.7-1.1,50.3-8.3,8.6-7.2,11.5-12.6,16.9-13.1,5.3-.5,24.9,1.3,24.9,1.3,0,0,22.4-18.4,28.6-40.9,2.7-9.6-19.3-13.9-19.3-13.9Z"/>
        <rect class="cls-1" x="1163.4" y="466" width="188.6" height="134"/>
        <path class="cls-6" d="M1977.1,1072.4"/>
        <path class="cls-4" d="M1977.1,1065.7s36.2-19,68.7.3c-21.7,63.7-39.5,73.1-45.2,73.8l-21.4-9.4c7.1-20.3,5.6-42-2.1-64.7Z"/>
        <path class="cls-8" d="M1976.6,1590.2s24.6,77,107,86.7"/>
        <path class="cls-4" d="M558.7,972.6v-50.7h-52.3c-2.1-7.5-5-14.6-8.8-21.2l36.9-36.9-35.8-35.8-36.9,36.9c-6.6-3.7-13.7-6.7-21.2-8.8v-52.2h-50.6v52.2c-7.5,2.1-14.6,5-21.2,8.8l-36.9-36.9-35.8,35.8,36.9,36.9c-3.7,6.6-6.7,13.7-8.8,21.2h-52.3v50.7h52.3c2.1,7.5,5,14.6,8.8,21.2l-36.9,36.9,35.8,35.8,36.9-36.9c6.6,3.7,13.7,6.7,21.2,8.8v52.2h50.6v-52.2c7.5-2.1,14.6-5,21.2-8.8l36.9,36.9,35.8-35.8-36.9-36.9c3.7-6.6,6.7-13.7,8.8-21.2h52.3ZM459.2,972.6c-4.4,7.7-10.8,14.1-18.5,18.5-3.8,2.2-7.9,3.9-12.2,5.1-4.2,1.1-8.6,1.7-13.1,1.7s-8.9-.6-13.1-1.7c-4.3-1.1-8.4-2.9-12.2-5.1-7.7-4.4-14.1-10.8-18.5-18.5-2.2-3.8-3.9-7.9-5.1-12.2-1.1-4.2-1.7-8.6-1.7-13.1s.6-8.9,1.7-13.1c1.1-4.3,2.9-8.4,5.1-12.2,4.4-7.7,10.8-14.1,18.5-18.5,3.8-2.2,7.9-3.9,12.2-5.1,4.2-1.1,8.6-1.7,13.1-1.7s8.9.6,13.1,1.7c4.3,1.1,8.4,2.9,12.2,5.1,7.7,4.4,14.1,10.9,18.5,18.5,2.2,3.8,3.9,7.9,5.1,12.2,1.1,4.2,1.7,8.6,1.7,13.1s-.6,8.9-1.7,13.1c-1.2,4.3-2.9,8.4-5.1,12.2Z"/>
        <g>
          <circle class="cls-4" cx="619.4" cy="1397.2" r="145"/>
          <path class="cls-12" d="M524.2,1393.9l84,73.8c3.6,3.1,8.3,4.6,13.1,4.1,4.7-.5,9-3.1,11.8-7l132.9-185.9c5.4-7.6,3.7-18.1-3.9-23.6-7.6-5.4-18.1-3.7-23.6,3.9l-122.1,170.7-70-61.5c-7-6.2-17.7-5.5-23.8,1.5-6.2,7-5.5,17.7,1.5,23.8h0Z"/>
        </g>
        <g>
          <path class="cls-1" d="M1056.8,2206.7c-23-21.4-48.4-48.4-43-79.4,4.1-23.4,24.4-39.7,38.8-58.6,19.9-26.1,29.2-60.8,21.7-92.8-7.5-31.9-32.9-59.8-64.9-67.2-32-7.4-68.7,8-83.2,37.4-11.4,23.1-8.8,50.2-11.2,75.8-2.3,25.6-13.3,54.3-37.9,62-20.5,6.4-42.2-4.6-59.7-17.1-17.5-12.5-34.8-27.3-56.1-30.1-25-3.2-50,12.3-62.7,34.1-12.7,21.8-14.4,48.6-10,73.4,4.4,24.8,14.6,48.2,24.7,71.3l-66.3,75.9-21.8,253.2h227.7c23.5-10.6,45.4-24.5,67.2-38.4,18-11.5,36-22.9,53.9-34.4,12.2-7.8,25.7-17.7,26.5-32.1,1.6-29.2-48.1-40.5-47.3-69.8.3-11.9,10-21.9,20.9-26.6,11-4.7,23.2-5.1,35.1-5.9,18.2-1.2,36.8-3.3,53.4-11,16.6-7.7,31.1-21.8,35-39.7,6.8-30.7-18-58.6-41-80Z"/>
          <path class="cls-7" d="M960.5,2065.1s-24.1,140-98.9,208.9c-74.9,68.9-87.7,161.1-84.5,201.9,3.2,40.8-34.3,68.7-34.3,68.7"/>
          <path class="cls-7" d="M873.6,2415.8s-67.2-23.1-94.7,17.4"/>
          <path class="cls-7" d="M786.7,2237.6s31.8,15.4,29.8,90.9"/>
          <path class="cls-7" d="M968,2204.5s-22.7,33.1-79.5,39.1"/>
        </g>
        <g>
          <path class="cls-4" d="M727,2486.2c23.6-46.4-.1-83.2-39.4-108.8-38.8-36.1-9.5-59.7,24.9-81.6,62-54.1.3-152.7-75.5-120.3-27.3,13.2-58.9,51-90.7,28.9-18.3-14.5-12.2-42.7-10.3-65.9,6.1-58.2-37.8-141.2-104.2-130.6-29.6,7.4-46.4,39.3-73.9,52.4-81.3,35.3-144.4-79.1-223.6-71.7-153.6,34.4-104.9,303.1,115.1,269.9,17.6,1.4,36,8.1,45.8,22.7,31.9,50.1-49.8,109.4-19.2,159.8,26.6,38.3,79.5,18.5,118.1,17.7,54.3-1.7,75.9,45.7,45.9,85.7h210.7c31.6-10.7,60.1-28,76.2-58.4Z"/>
          <path class="cls-4" d="M511.8,2544.5l16.9-32.2c74-255.9-313.8-389.4-313.8-389.4"/>
          <path class="cls-4" d="M564.1,2311.2s8.9,57.1-31.2,90.5"/>
          <path class="cls-4" d="M400.5,2122.9c1.1,2.7,32.6,55.5,6.9,104.7"/>
          <path class="cls-4" d="M404.2,2305.9s67.8-7.8,92.4,14"/>
          <path class="cls-4" d="M232,2162.6s37,11.8,70.2-1.1"/>
        </g>
        <g>
          <rect class="cls-1" x="2326.9" y="1900.8" width="271.6" height="26.1"/>
          <rect class="cls-4" x="2326.9" y="1926.9" width="271.6" height="244.2"/>
          <rect class="cls-4" x="2326.9" y="2171.1" width="271.6" height="374.1"/>
          <rect class="cls-4" x="2326.9" y="1855" width="271.6" height="45.8"/>
          <circle class="cls-4" cx="2377.6" cy="2014.3" r="7.7"/>
          <circle class="cls-4" cx="2437.1" cy="2014.3" r="7.7"/>
          <circle class="cls-4" cx="2496.5" cy="2014.3" r="7.7"/>
          <circle class="cls-4" cx="2556" cy="2014.3" r="7.7"/>
          <circle class="cls-4" cx="2496.5" cy="2110.3" r="7.7"/>
          <circle class="cls-4" cx="2556" cy="2110.3" r="7.7"/>
          <circle class="cls-4" cx="2556" cy="2202.6" r="7.7"/>
          <rect class="cls-1" x="2369.8" y="2196.2" width="134.4" height="12.8"/>
          <circle class="cls-4" cx="2556" cy="2278.8" r="7.7"/>
          <rect class="cls-1" x="2369.8" y="2272.4" width="134.4" height="12.8"/>
          <circle class="cls-4" cx="2556" cy="2355" r="7.7"/>
          <rect class="cls-1" x="2369.8" y="2348.6" width="134.4" height="12.8"/>
          <circle class="cls-4" cx="2556" cy="2431.2" r="7.7"/>
          <rect class="cls-1" x="2369.8" y="2424.8" width="134.4" height="12.8"/>
        </g>
        <g>
          <rect class="cls-1" x="2624.6" y="1900.8" width="271.6" height="26.1"/>
          <rect class="cls-4" x="2624.6" y="2171.1" width="271.6" height="374.1"/>
          <rect class="cls-4" x="2624.6" y="1926.9" width="271.6" height="244.2"/>
          <rect class="cls-4" x="2624.6" y="1855" width="271.6" height="45.8"/>
          <circle class="cls-4" cx="2675.3" cy="2014.3" r="7.7"/>
          <circle class="cls-4" cx="2734.7" cy="2014.3" r="7.7"/>
          <circle class="cls-4" cx="2794.2" cy="2014.3" r="7.7"/>
          <circle class="cls-4" cx="2853.7" cy="2014.3" r="7.7"/>
          <circle class="cls-4" cx="2794.2" cy="2110.3" r="7.7"/>
          <circle class="cls-4" cx="2853.7" cy="2110.3" r="7.7"/>
          <circle class="cls-4" cx="2853.7" cy="2202.6" r="7.7"/>
          <rect class="cls-1" x="2667.5" y="2196.2" width="134.4" height="12.8"/>
          <circle class="cls-4" cx="2853.7" cy="2278.8" r="7.7"/>
          <rect class="cls-1" x="2667.5" y="2272.4" width="134.4" height="12.8"/>
          <circle class="cls-4" cx="2853.7" cy="2355" r="7.7"/>
          <rect class="cls-1" x="2667.5" y="2348.6" width="134.4" height="12.8"/>
          <circle class="cls-4" cx="2853.7" cy="2431.2" r="7.7"/>
          <rect class="cls-1" x="2667.5" y="2424.8" width="134.4" height="12.8"/>
          <polygon class="cls-4" points="2896.2 2545.2 2955 2545.2 2955 1913.9 2896.2 1855 2896.2 2545.2"/>
        </g>
        <g>
          <circle class="cls-1" cx="2699.6" cy="1090.7" r="165.6"/>
          <path class="cls-4" d="M2715,1061.3c9.1-5.3,15.2-15.1,15.2-26.4,0-16.9-13.7-30.6-30.6-30.6s-30.6,13.7-30.6,30.6,6.1,21.1,15.2,26.4c-26.8,6.9-46.6,31.2-46.6,60.1v30h124.1v-30c0-29-19.8-53.3-46.6-60.1Z"/>
        </g>
      </g>
    </g>
  </g>
</svg>