<?xml version="1.0" encoding="UTF-8"?>
<svg xmlns="http://www.w3.org/2000/svg" version="1.1" viewBox="0 0 60 60">
  <defs>
    <style>
      .cls-1 {
        fill: #5355ce;
      }
    </style>
  </defs>
  <!-- Generator: Adobe Illustrator 28.6.0, SVG Export Plug-In . SVG Version: 1.2.0 Build 709)  -->
  <g>
    <g id="Layer_1">
      <g>
        <path class="cls-1" d="M60,1.3v46.9c-.5,1-1.3,1.3-2.4,1.3-10.7,0-21.4,0-32.2,0h-.7c0-2.9,0-5.7,0-8.5,0-.7-.2-1.4-.3-2.1,0-.3,0-.6.2-.8,8.1-8.1,16.3-16.3,24.4-24.4,0,0,.2-.2.4-.3,0,2.1,0,4,0,6,0,1.2.7,2,1.8,2,1,0,1.7-.8,1.7-2,0-3.4,0-6.8,0-10.1,0-1.3-.7-2-2-2-3.4,0-6.8,0-10.1,0-1.2,0-1.9.7-2,1.7,0,1,.8,1.8,2,1.8,1.8,0,3.6,0,5.4,0,.2,0,.4,0,.7,0-.2.2-.4.4-.5.6-8,8-16,16-24.1,24.1,0,0-.2.2-.3.2-.2,0-.4.1-.6.1-.7-.1-1.5-.3-2.2-.4-2.6,0-5.2,0-7.8,0h-.7v-.7c0-10.8,0-21.6,0-32.5,0-1.6.6-2.2,2.3-2.2,14.9,0,29.8,0,44.7,0,1.1,0,1.9.3,2.4,1.3Z"/>
        <path class="cls-1" d="M1.3,60C.3,59.5,0,58.7,0,57.6c0-5.5,0-11,0-16.6,0-1.5.6-2.2,2.2-2.2,5.6,0,11.2,0,16.9,0,1.5,0,2.2.6,2.2,2.2,0,5.5,0,11,0,16.6,0,1.1-.3,1.9-1.3,2.4H1.3Z"/>
      </g>
    </g>
  </g>
</svg>